<?xml version="1.0" encoding="UTF-8" standalone="no"?>
<!DOCTYPE svg PUBLIC "-//W3C//DTD SVG 1.1//EN" "http://www.w3.org/Graphics/SVG/1.1/DTD/svg11.dtd">
<svg xmlns="http://www.w3.org/2000/svg" version="1.1" viewBox="0.00 0.00 1448.00 1448.00">
<g stroke-width="2.60" fill="none" stroke-linecap="butt">
<path stroke="#e9e9e9" vector-effect="non-scaling-stroke" d="
  M 441.36 1047.16
  C 451.07 1040.99 461.34 1035.00 472.07 1031.00
  C 479.43 1028.26 487.39 1024.84 494.06 1023.05
  Q 509.56 1018.88 527.50 1017.85
  Q 556.61 1016.17 582.49 1022.23"
/>
<path stroke="#808080" vector-effect="non-scaling-stroke" d="
  M 582.49 1022.23
  Q 597.83 1036.68 608.76 1054.79
  Q 609.11 1055.37 609.23 1054.71
  C 611.20 1044.47 609.54 1034.62 602.90 1026.29
  C 582.83 1001.07 541.50 995.31 511.45 1001.80
  Q 486.73 1007.14 464.62 1019.40
  Q 441.84 1032.02 419.34 1045.14
  Q 407.67 1051.95 401.76 1054.65
  Q 359.60 1073.90 312.13 1063.92"
/>
<path stroke="#e9e9e9" vector-effect="non-scaling-stroke" d="
  M 312.13 1063.92
  Q 303.45 1049.91 290.66 1039.07
  Q 289.18 1037.82 287.54 1038.58
  A 2.15 2.14 -21.4 0 0 286.40 1041.16
  L 292.52 1060.62"
/>
<path stroke="#808080" vector-effect="non-scaling-stroke" d="
  M 292.52 1060.62
  Q 276.00 1057.71 260.08 1054.65
  C 257.44 1054.14 253.81 1053.09 252.27 1051.47
  C 221.71 1019.39 195.96 979.56 182.35 937.28
  Q 177.11 920.98 172.08 904.68
  A 0.11 0.10 -69.8 0 1 172.27 904.59
  Q 191.65 937.04 217.99 964.02
  C 233.93 980.35 256.53 975.75 275.22 968.25
  C 296.50 959.71 315.23 947.78 333.12 933.48
  C 338.82 928.92 342.97 924.70 344.79 917.40
  Q 344.90 916.93 344.58 916.57
  Q 341.01 912.58 337.26 910.15
  Q 299.56 885.65 256.34 868.28
  Q 255.33 867.88 256.40 867.71
  C 328.36 856.51 389.13 821.83 421.40 754.17
  Q 423.71 749.32 424.59 740.79"
/>
<path stroke="#f8b798" vector-effect="non-scaling-stroke" d="
  M 424.59 740.79
  Q 429.21 728.88 430.77 717.21
  A 2.39 2.38 -89.4 0 1 432.88 715.14
  Q 470.34 711.13 495.08 737.15
  C 498.33 740.57 502.00 745.43 503.25 749.50
  Q 507.84 764.35 512.51 779.20
  C 517.28 794.37 522.17 805.57 531.32 816.94
  C 552.34 843.07 580.64 855.58 613.50 860.42
  C 646.29 865.24 678.38 867.00 711.00 865.81
  Q 740.01 864.76 768.95 865.16"
/>
<path stroke="#808080" vector-effect="non-scaling-stroke" d="
  M 768.95 865.16
  C 797.68 875.04 827.52 891.05 846.96 914.88"
/>
<path stroke="#f8b798" vector-effect="non-scaling-stroke" d="
  M 846.96 914.88
  L 849.61 929.85"
/>
<path stroke="#808080" vector-effect="non-scaling-stroke" d="
  M 849.61 929.85
  Q 825.63 898.42 791.43 879.70
  C 784.07 875.67 778.59 873.74 771.03 876.69
  Q 768.87 877.54 769.32 879.29
  Q 769.45 879.84 769.98 880.03
  Q 802.74 892.17 819.56 923.51
  Q 836.96 955.92 841.61 992.08"
/>
<path stroke="#f8b798" vector-effect="non-scaling-stroke" d="
  M 841.61 992.08
  Q 826.54 1039.06 793.88 1076.62
  Q 793.51 1077.05 793.71 1077.58
  L 794.55 1079.78"
/>
<path stroke="#808080" vector-effect="non-scaling-stroke" d="
  M 794.55 1079.78
  Q 780.53 1086.04 765.58 1088.00
  A 0.51 0.51 0.0 0 0 765.26 1088.83
  Q 765.58 1089.19 766.13 1089.18
  Q 782.96 1088.87 799.21 1085.30"
/>
<path stroke="#edad8d" vector-effect="non-scaling-stroke" d="
  M 799.21 1085.30
  Q 806.89 1091.17 812.10 1098.98"
/>
<path stroke="#808080" vector-effect="non-scaling-stroke" d="
  M 812.10 1098.98
  C 792.09 1135.92 780.82 1177.90 782.25 1220.00
  Q 782.46 1226.10 785.87 1231.02
  C 787.98 1234.07 792.28 1233.13 791.82 1228.97
  Q 790.09 1213.14 792.43 1197.17
  Q 792.54 1196.43 792.86 1197.10
  Q 805.17 1222.54 823.47 1244.03
  Q 829.23 1250.80 837.14 1256.34
  C 842.76 1260.27 852.59 1262.70 858.06 1257.16
  C 860.03 1255.16 858.38 1253.00 855.93 1252.65
  C 842.54 1250.72 830.43 1237.15 822.55 1226.45
  Q 807.12 1205.51 794.52 1182.34
  A 2.48 2.46 35.5 0 1 794.25 1180.75
  Q 798.94 1151.91 810.24 1124.98
  A 0.47 0.47 0.0 0 1 811.07 1124.91
  Q 813.44 1128.74 816.84 1131.88
  Q 857.01 1169.00 909.99 1151.47
  Q 923.79 1146.91 935.02 1137.97
  A 0.73 0.73 0.0 0 0 935.12 1136.92
  C 917.96 1117.36 913.97 1096.53 914.67 1071.26
  Q 915.80 1030.62 937.06 995.57
  A 0.60 0.59 -78.5 0 0 936.47 994.67
  L 934.03 995.00
  Q 933.27 995.10 933.89 994.65
  Q 970.36 968.25 1014.13 959.22
  C 1034.32 955.05 1055.62 955.22 1075.99 958.15
  Q 1087.45 959.80 1098.24 963.98
  A 0.81 0.81 0.0 0 0 1099.33 963.36
  C 1100.52 956.15 1094.92 951.63 1090.35 946.84
  C 1060.05 915.11 1025.49 888.18 984.59 871.45
  A 0.71 0.70 -74.7 0 1 984.17 870.71
  L 985.73 859.30
  Q 985.80 858.82 986.27 858.71
  Q 1054.29 843.30 1114.56 808.75
  C 1147.14 790.06 1173.78 765.28 1194.54 733.86
  Q 1196.56 730.81 1196.26 726.26
  A 1.40 1.40 0.0 0 0 1194.04 725.22
  L 1191.13 727.32
  Q 1190.71 727.62 1190.23 727.45
  Q 1182.35 724.66 1158.23 716.54
  C 1138.79 710.01 1121.72 697.64 1105.55 684.71"
/>
<path stroke="#f8b798" vector-effect="non-scaling-stroke" d="
  M 1105.55 684.71
  Q 1105.57 684.63 1105.59 684.55"
/>
<path stroke="#808080" vector-effect="non-scaling-stroke" d="
  M 1105.59 684.55
  Q 1141.59 700.61 1181.39 698.26
  Q 1186.20 697.98 1189.11 694.51
  A 1.24 1.24 0.0 0 0 1188.98 692.79
  L 1125.31 636.44
  A 0.58 0.58 0.0 0 1 1125.29 635.59
  C 1167.74 594.61 1206.58 549.87 1239.46 500.71
  C 1264.11 463.85 1286.35 425.96 1308.07 387.33
  Q 1325.43 356.45 1340.57 322.32
  Q 1362.53 272.79 1370.27 220.11
  C 1370.64 217.57 1370.08 215.34 1367.25 215.11
  Q 1359.13 214.44 1349.50 214.88
  C 1333.42 215.61 1317.25 216.21 1301.32 218.12
  Q 1130.33 238.63 966.45 299.44
  Q 918.61 317.20 876.79 339.66
  C 863.55 346.78 852.04 355.05 840.88 364.49
  A 0.55 0.55 0.0 0 1 840.03 364.32
  C 837.62 359.60 830.79 344.90 832.18 339.98
  Q 835.52 328.12 836.73 320.24
  Q 842.76 280.98 853.57 242.75
  Q 860.35 218.75 866.91 194.68
  Q 869.94 183.58 871.57 175.23
  Q 876.97 147.63 878.64 119.51
  Q 879.90 98.23 872.11 78.59
  Q 871.86 77.96 871.17 77.92
  Q 756.04 72.14 644.67 101.38
  C 546.79 127.09 464.78 182.37 404.52 263.50
  Q 385.04 289.74 373.95 321.21
  C 372.52 325.28 367.95 328.47 365.54 332.04
  Q 364.09 334.19 363.11 336.81
  C 361.51 341.08 366.27 342.70 368.60 339.83
  A 0.48 0.48 0.0 0 1 369.43 340.29
  Q 336.12 439.59 299.79 537.61
  Q 299.65 537.97 299.32 538.39
  Q 299.08 538.70 298.89 539.06
  Q 298.65 539.48 298.26 539.78
  Q 285.45 549.39 264.50 566.99
  C 250.33 578.89 236.98 593.55 231.62 610.46
  A 0.43 0.43 0.0 0 0 232.27 610.95
  L 287.03 575.03
  A 0.34 0.34 0.0 0 1 287.54 575.43
  Q 271.99 620.54 253.35 664.30
  C 246.16 681.18 240.10 694.37 230.57 708.29
  C 225.87 715.16 217.81 723.79 209.51 725.93
  Q 208.94 726.07 208.65 725.55
  L 206.28 721.24
  A 1.59 1.59 0.0 0 0 203.30 721.89
  C 202.00 739.56 213.29 756.72 225.71 768.06
  A 0.81 0.81 0.0 0 1 225.69 769.28
  Q 225.50 769.45 225.03 769.23
  Q 215.64 764.72 206.53 760.30
  A 0.94 0.94 0.0 0 0 205.25 760.78
  C 201.52 769.68 201.49 777.82 204.08 787.58
  Q 216.15 833.06 257.00 857.83
  A 0.22 0.21 -37.8 0 1 256.95 858.22
  Q 248.30 860.74 239.34 860.87
  C 232.42 860.97 226.48 859.04 219.40 857.10
  Q 195.35 850.47 165.00 850.53
  Q 161.76 850.54 158.65 853.76
  Q 158.33 854.09 158.33 854.53
  Q 158.06 868.18 160.82 878.25
  Q 162.88 885.76 164.40 900.27
  C 166.24 917.91 171.41 937.88 178.22 955.15
  Q 200.40 1011.36 243.44 1054.32
  Q 246.75 1057.62 249.25 1058.50
  C 273.76 1067.17 299.61 1073.30 325.40 1076.49
  C 363.34 1081.18 398.35 1071.52 430.67 1051.26
  A 0.87 0.86 41.9 0 1 431.52 1051.22
  Q 447.70 1059.41 462.77 1068.75
  C 479.23 1078.96 490.50 1092.91 494.18 1112.25
  C 504.15 1164.69 466.14 1213.44 431.95 1248.76
  A 1.15 1.15 0.0 0 0 432.43 1250.66
  Q 433.50 1251.00 435.08 1250.55
  Q 453.10 1245.40 469.96 1236.69
  Q 470.63 1236.34 470.43 1237.07
  Q 462.10 1267.01 455.21 1297.30
  C 454.65 1299.77 454.81 1306.50 458.26 1306.94
  A 1.16 1.15 -80.5 0 0 459.53 1306.03
  C 461.31 1297.60 463.44 1289.58 466.42 1281.14
  C 469.18 1273.34 472.28 1265.60 474.36 1257.76
  Q 477.66 1245.29 480.49 1233.19
  A 3.96 3.94 -10.1 0 1 482.19 1230.77
  Q 487.74 1227.20 493.58 1223.32
  C 496.16 1221.60 495.69 1217.90 492.47 1217.35
  Q 487.53 1216.51 483.19 1218.97
  Q 471.92 1225.37 459.97 1231.67
  A 0.28 0.27 -81.1 0 1 459.65 1231.23
  C 498.03 1193.74 532.46 1122.18 488.17 1074.59
  C 474.89 1060.33 459.91 1053.92 441.36 1047.16"
/>
<path stroke="#793819" vector-effect="non-scaling-stroke" d="
  M 1105.59 684.55
  L 1093.00 675.21
  A 1.50 1.50 0.0 0 1 1093.22 672.67
  C 1095.09 671.73 1097.77 671.96 1099.87 672.85
  Q 1138.86 689.42 1181.80 691.79
  A 0.51 0.51 0.0 0 0 1182.07 690.84
  Q 1173.75 686.15 1165.79 680.23
  Q 1142.55 662.95 1120.06 644.69
  Q 1069.01 603.23 1029.66 550.55
  Q 1005.40 518.07 981.20 477.57
  C 974.21 465.87 968.63 456.95 964.13 445.55
  Q 961.92 439.96 959.47 434.74"
/>
<path stroke="#24160f" vector-effect="non-scaling-stroke" d="
  M 959.47 434.74
  Q 959.80 433.47 961.20 433.45
  A 0.89 0.89 0.0 0 0 961.99 432.97
  C 963.39 430.30 964.30 428.07 967.84 428.50
  Q 968.44 428.57 968.36 429.18
  Q 967.51 435.44 970.01 440.24
  Q 981.74 462.67 996.17 484.31
  A 1.48 1.47 54.3 0 0 998.30 484.66
  Q 998.77 484.29 999.23 483.47
  C 1016.79 452.38 1038.73 426.45 1066.55 401.79
  C 1123.19 351.57 1189.36 310.88 1258.80 281.34
  Q 1279.30 272.62 1303.34 266.84
  Q 1305.09 266.42 1307.60 265.43
  C 1310.22 264.39 1312.91 264.31 1314.90 262.08
  A 1.56 1.56 0.0 0 1 1317.41 262.32
  C 1323.21 272.04 1321.43 286.57 1318.80 297.00
  Q 1307.05 343.44 1289.15 390.12
  Q 1288.95 390.64 1288.99 390.68
  A 0.58 0.58 0.0 0 0 1289.89 390.54
  Q 1305.36 362.71 1319.72 334.44
  Q 1347.28 280.16 1359.57 220.57
  A 1.70 1.70 0.0 0 0 1357.59 218.56
  C 1311.79 227.14 1265.44 232.32 1219.69 241.34
  Q 1153.25 254.45 1104.74 267.00
  Q 1035.37 284.94 957.48 314.25
  C 918.24 329.01 885.21 343.38 851.49 366.67"
/>
<path stroke="#793819" vector-effect="non-scaling-stroke" d="
  M 851.49 366.67
  L 844.41 372.40
  A 0.78 0.78 0.0 0 0 844.17 373.27
  Q 848.45 385.63 857.31 395.24
  Q 857.33 395.27 857.33 395.30
  Q 857.32 395.45 857.23 395.57
  Q 857.08 395.77 856.88 395.61
  Q 852.66 392.00 849.40 390.12
  Q 824.56 375.78 790.88 357.91
  C 758.60 340.78 727.41 325.55 695.37 314.07
  C 615.72 285.52 526.73 274.68 444.51 298.21
  Q 409.27 308.29 380.58 328.79
  Q 378.44 330.31 377.99 332.13
  C 361.66 398.14 338.83 463.90 316.69 525.83
  A 0.84 0.68 61.0 0 0 316.64 526.11
  Q 316.61 527.45 317.43 526.88
  Q 364.48 494.59 417.90 476.74
  A 1.76 1.75 -11.3 0 0 419.10 474.95
  C 418.23 462.83 414.62 451.94 411.26 440.58
  C 410.76 438.89 411.39 437.53 412.93 436.85
  A 2.40 2.40 0.0 0 1 415.88 437.70
  Q 431.63 461.04 427.17 489.74
  C 425.79 498.63 422.83 508.34 413.56 511.74"
/>
<path stroke="#6e2e0e" vector-effect="non-scaling-stroke" d="
  M 413.56 511.74
  Q 413.62 510.48 413.55 510.31
  Q 412.76 508.14 410.87 509.46
  C 408.01 511.46 405.51 513.65 402.41 515.08
  Q 354.16 537.36 307.51 562.84
  C 300.82 566.49 299.03 573.53 297.48 580.68"
/>
<path stroke="#793819" vector-effect="non-scaling-stroke" d="
  M 297.48 580.68
  L 270.64 651.47
  A 0.55 0.55 0.0 0 0 271.22 652.21
  C 279.82 651.15 289.17 648.65 296.61 647.47
  Q 334.60 641.47 372.49 634.87
  C 382.61 633.10 406.67 628.36 408.25 616.26
  Q 411.68 589.87 416.03 563.62
  C 416.78 559.08 416.63 554.63 416.76 550.04
  C 416.86 546.61 418.34 543.98 422.11 544.71
  Q 422.62 544.81 422.95 545.21
  C 430.48 554.06 427.57 575.16 426.28 588.14
  C 424.41 606.80 421.81 625.38 415.00 642.69
  Q 414.79 643.22 414.25 643.40
  L 405.58 646.36
  Q 404.70 646.65 404.82 647.57
  C 407.29 666.08 407.17 683.61 404.12 702.37
  C 401.66 717.53 400.02 733.63 395.27 747.51
  Q 390.51 761.41 378.15 768.92
  Q 376.37 770.00 375.40 768.16
  Q 374.95 767.32 375.27 766.49"
/>
<path stroke="#808080" vector-effect="non-scaling-stroke" d="
  M 375.27 766.49
  Q 377.42 763.94 379.16 758.98
  Q 386.50 738.05 389.06 715.89
  A 0.41 0.40 -0.1 0 0 388.60 715.44
  C 360.93 719.23 343.93 691.94 340.41 667.93"
/>
<path stroke="#607b80" vector-effect="non-scaling-stroke" d="
  M 340.41 667.93
  L 340.89 653.92
  Q 340.91 653.35 340.34 653.37
  Q 323.29 654.13 306.32 656.02
  C 302.87 656.40 299.78 658.05 300.02 661.76
  Q 301.87 691.33 310.48 725.50
  Q 311.67 730.22 311.40 742.85"
/>
<path stroke="#793819" vector-effect="non-scaling-stroke" d="
  M 311.40 742.85
  Q 309.58 742.58 308.87 740.86
  Q 293.36 703.40 294.24 662.36
  C 294.27 660.78 293.42 658.97 291.75 659.02
  Q 282.28 659.30 272.80 659.65
  C 271.06 659.72 270.17 659.19 269.11 657.93
  A 0.95 0.95 0.0 0 0 267.49 658.23
  C 258.08 685.50 240.27 721.11 212.08 731.87
  A 0.53 0.53 0.0 0 0 211.81 732.62
  L 220.50 748.15"
/>
<path stroke="#808080" vector-effect="non-scaling-stroke" d="
  M 220.50 748.15
  L 240.60 776.39
  A 1.51 1.49 50.5 0 1 240.42 778.34
  C 233.16 785.37 217.31 774.75 211.34 770.12
  A 0.44 0.44 0.0 0 0 210.63 770.54
  Q 219.79 827.60 270.03 855.18
  A 2.37 2.37 0.0 0 0 271.64 855.43
  C 315.00 846.62 354.77 827.33 384.76 794.21"
/>
<path stroke="#793819" vector-effect="non-scaling-stroke" d="
  M 384.76 794.21
  Q 403.27 773.86 413.79 754.03
  Q 418.27 745.57 420.40 732.18
  Q 420.44 731.96 420.55 731.79
  Q 420.71 731.54 420.80 731.45
  A 0.59 0.58 -30.7 0 1 421.77 731.69
  L 424.59 740.79"
/>
<path stroke="#6a6a6a" vector-effect="non-scaling-stroke" d="
  M 292.52 1060.62
  L 312.13 1063.92"
/>
<path stroke="#6a6a6a" vector-effect="non-scaling-stroke" d="
  M 582.49 1022.23
  C 561.40 1003.19 528.86 999.36 502.83 1007.89
  Q 496.33 1010.02 484.68 1016.17
  Q 469.71 1024.07 454.70 1031.90
  Q 450.62 1034.03 439.37 1042.42
  Q 438.98 1042.71 438.93 1043.20
  Q 438.60 1046.33 441.36 1047.16"
/>
<path stroke="#dffaff" vector-effect="non-scaling-stroke" d="
  M 340.41 667.93
  Q 327.69 669.40 314.99 670.83
  C 313.25 671.02 311.35 671.97 311.19 673.74
  Q 310.47 682.22 310.90 692.93
  Q 311.16 699.51 312.99 711.99
  Q 314.87 724.87 315.87 737.90
  A 1.25 1.24 -27.8 0 1 315.59 738.79
  L 311.39 743.71"
/>
<path stroke="#9c4d27" vector-effect="non-scaling-stroke" d="
  M 959.47 434.74
  Q 945.66 420.80 931.92 407.33
  Q 898.18 374.28 851.49 366.67"
/>
<path stroke="#793819" vector-effect="non-scaling-stroke" d="
  M 1105.55 684.71
  C 1104.21 684.05 1101.79 683.24 1100.59 684.48
  C 1099.28 685.83 1099.77 686.91 1100.97 688.19
  Q 1134.47 724.14 1183.29 731.96
  Q 1183.67 732.03 1183.96 732.22
  Q 1184.34 732.49 1184.52 732.70
  A 0.90 0.89 45.8 0 1 1184.51 733.88
  Q 1178.60 740.50 1172.74 747.08
  C 1170.77 749.30 1169.29 749.37 1166.50 749.22
  Q 1107.22 746.07 1044.74 748.04
  C 1032.34 748.43 1022.22 749.46 1011.01 751.86
  Q 1009.92 752.09 1009.97 753.26
  A 0.89 0.88 1.5 0 0 1010.78 754.10
  L 1030.07 755.71"
/>
<path stroke="#e66526" vector-effect="non-scaling-stroke" d="
  M 1030.07 755.71
  Q 1032.49 757.43 1035.23 758.49
  Q 1037.28 759.27 1040.93 759.40
  C 1047.36 759.63 1054.68 761.49 1059.69 762.16
  Q 1100.97 767.65 1142.70 775.18"
/>
<path stroke="#793819" vector-effect="non-scaling-stroke" d="
  M 1142.70 775.18
  Q 1110.41 798.69 1074.90 814.06
  Q 1074.50 814.23 1074.03 814.24
  C 1073.31 814.27 1072.51 814.39 1071.83 814.13
  C 1043.21 803.15 1013.84 795.21 983.00 794.47
  Q 977.17 794.33 972.60 794.66
  A 0.30 0.29 -36.3 0 0 972.51 795.23
  L 984.83 800.04"
/>
<path stroke="#e66526" vector-effect="non-scaling-stroke" d="
  M 984.83 800.04
  Q 997.03 809.24 1011.20 814.45
  Q 1019.72 817.58 1022.61 819.11
  Q 1030.87 823.47 1038.43 829.56"
/>
<path stroke="#793819" vector-effect="non-scaling-stroke" d="
  M 1038.43 829.56
  Q 1006.58 839.78 989.51 844.76
  Q 955.77 854.61 926.30 868.60
  Q 925.82 868.83 925.60 869.09
  A 0.58 0.57 -66.3 0 0 925.96 870.03
  Q 943.84 872.26 961.75 875.51
  Q 990.29 880.70 1016.84 897.94
  C 1041.34 913.83 1062.79 932.27 1085.27 952.05
  Q 1085.69 952.42 1085.14 952.31
  Q 1082.04 951.74 1078.94 951.01
  C 1017.51 936.51 954.34 960.32 906.84 1000.10
  Q 873.33 1028.16 858.38 1040.79
  C 839.07 1057.09 817.82 1069.95 794.55 1079.78"
/>
<path stroke="#793819" vector-effect="non-scaling-stroke" d="
  M 841.61 992.08
  L 847.97 1028.12
  Q 848.00 1028.32 848.19 1028.42
  Q 848.36 1028.50 848.56 1028.50
  A 0.39 0.39 0.0 0 0 848.93 1028.20
  Q 853.53 1010.41 851.20 992.43
  Q 851.15 992.02 849.64 982.07
  Q 848.83 976.74 847.91 971.74"
/>
<path stroke="#f8b798" vector-effect="non-scaling-stroke" d="
  M 847.91 971.74
  L 850.77 948.03"
/>
<path stroke="#793819" vector-effect="non-scaling-stroke" d="
  M 850.77 948.03
  L 861.36 959.35
  Q 861.78 959.80 861.92 959.20
  Q 863.11 953.92 861.58 949.99
  Q 857.62 939.83 849.61 929.85"
/>
<path stroke="#793819" vector-effect="non-scaling-stroke" d="
  M 846.96 914.88
  L 864.30 932.45
  A 0.58 0.58 0.0 0 0 865.27 931.88
  C 853.66 892.21 807.48 867.67 770.00 858.47
  C 768.47 858.09 766.89 858.37 766.59 860.06
  C 766.31 861.62 768.05 863.83 768.95 865.16"
/>
<path stroke="#f8b798" vector-effect="non-scaling-stroke" d="
  M 384.76 794.21
  C 358.85 805.44 331.06 804.93 304.38 796.43
  Q 257.78 781.59 220.50 748.15"
/>
<path stroke="#d8b298" vector-effect="non-scaling-stroke" d="
  M 311.40 742.85
  Q 311.86 743.95 311.39 743.71"
/>
<path stroke="#f8b798" vector-effect="non-scaling-stroke" d="
  M 311.39 743.71
  C 325.86 764.23 351.40 771.20 375.27 766.49"
/>
<path stroke="#e66526" vector-effect="non-scaling-stroke" d="
  M 297.48 580.68
  Q 319.82 567.34 341.72 553.68
  C 365.38 538.92 390.84 528.09 413.56 511.74"
/>
<path stroke="#808080" vector-effect="non-scaling-stroke" d="
  M 850.77 948.03
  L 831.53 925.30
  A 0.17 0.17 0.0 0 0 831.25 925.48
  Q 842.53 947.17 847.91 971.74"
/>
<path stroke="#6e2e0e" vector-effect="non-scaling-stroke" d="
  M 812.10 1098.98
  Q 818.50 1087.87 827.30 1078.56
  Q 828.28 1077.52 829.31 1077.77
  A 0.74 0.74 0.0 0 1 829.81 1078.79
  Q 824.07 1091.94 818.41 1105.15
  Q 816.12 1110.49 816.10 1113.11
  C 816.04 1121.62 825.09 1127.01 831.11 1131.33
  C 849.92 1144.80 870.33 1148.26 892.87 1144.14
  Q 908.74 1141.24 924.26 1136.71
  Q 924.79 1136.56 924.43 1136.15
  Q 909.53 1119.41 906.34 1097.50
  C 902.46 1070.81 905.13 1041.97 915.45 1016.72
  C 917.50 1011.70 920.24 1007.23 923.39 1002.93
  A 0.54 0.53 -2.9 0 0 922.60 1002.22
  Q 898.30 1024.06 873.94 1045.20
  Q 842.34 1072.62 799.21 1085.30"
/>
<path stroke="#6e2e0e" vector-effect="non-scaling-stroke" d="
  M 1038.43 829.56
  L 1058.31 821.59
  A 0.35 0.35 0.0 0 0 1058.30 820.93
  Q 1022.62 807.74 984.83 800.04"
/>
<path stroke="#6e2e0e" vector-effect="non-scaling-stroke" d="
  M 1142.70 775.18
  L 1160.55 759.27
  Q 1161.17 758.72 1160.34 758.70
  C 1116.88 757.99 1075.77 758.12 1030.07 755.71"
/>
<path stroke="#808080" vector-effect="non-scaling-stroke" d="
  M 428.3579 920.7460
  A 6.58 1.91 130.6 0 0 434.0902 916.9930
  A 6.58 1.91 130.6 0 0 436.9221 910.7540
  A 6.58 1.91 130.6 0 0 431.1898 914.5070
  A 6.58 1.91 130.6 0 0 428.3579 920.7460"
/>
<path stroke="#808080" vector-effect="non-scaling-stroke" d="
  M 393.2105 951.7188
  A 6.61 2.96 128.0 0 0 399.6125 948.3324
  A 6.61 2.96 128.0 0 0 401.3495 941.3012
  A 6.61 2.96 128.0 0 0 394.9475 944.6876
  A 6.61 2.96 128.0 0 0 393.2105 951.7188"
/>
<path stroke="#808080" vector-effect="non-scaling-stroke" d="
  M 448.3932 949.5859
  A 9.43 3.39 -40.1 0 0 438.9964 953.0669
  A 9.43 3.39 -40.1 0 0 433.9668 961.7341
  A 9.43 3.39 -40.1 0 0 443.3636 958.2531
  A 9.43 3.39 -40.1 0 0 448.3932 949.5859"
/>
<path stroke="#808080" vector-effect="non-scaling-stroke" d="
  M 622.41 1072.84
  C 621.51 1078.05 616.97 1077.14 613.31 1075.20
  C 606.00 1071.33 597.77 1062.51 588.40 1058.17
  C 586.41 1057.24 581.36 1056.20 580.28 1058.98
  A 2.07 2.06 20.4 0 0 581.52 1061.68
  C 590.75 1064.91 597.63 1069.77 604.42 1076.93
  C 608.97 1081.71 613.45 1089.29 621.24 1087.27
  Q 632.31 1084.40 632.60 1072.50
  Q 633.00 1056.58 625.59 1042.65
  Q 625.26 1042.04 624.90 1041.84
  Q 624.25 1041.48 623.61 1042.09
  A 1.25 1.23 -25.4 0 0 623.23 1043.13
  Q 624.97 1058.03 622.41 1072.84"
/>
<path stroke="#1e120c" vector-effect="non-scaling-stroke" d="
  M 424.16 255.09
  Q 403.04 281.94 386.48 311.85
  A 0.88 0.88 0.0 0 0 387.76 313.00
  Q 402.09 302.98 418.82 296.68
  Q 474.72 275.63 534.43 274.50
  C 540.24 274.39 545.28 273.82 550.68 273.02
  A 0.35 0.34 47.0 0 0 550.70 272.34
  Q 526.62 266.84 502.92 265.49
  C 500.29 265.34 499.56 262.46 501.13 260.96
  C 502.61 259.55 505.77 260.35 507.24 258.95
  Q 515.05 251.51 525.25 250.42
  Q 554.04 247.34 584.74 250.80
  Q 652.00 258.38 712.95 287.57
  Q 742.21 301.58 767.22 315.67
  C 778.47 322.00 789.28 329.53 800.01 336.96
  A 0.42 0.42 0.0 0 0 800.66 336.54
  Q 795.31 309.32 794.62 281.50
  C 794.14 262.39 794.89 246.38 800.89 228.70
  Q 801.59 226.62 803.25 227.27
  A 1.31 1.30 -85.0 0 1 804.05 228.23
  L 806.03 238.20"
/>
<path stroke="#6e2e0e" vector-effect="non-scaling-stroke" d="
  M 806.03 238.20
  Q 802.38 243.32 802.23 245.74
  Q 799.43 291.38 808.13 336.23
  Q 809.45 343.03 814.94 347.81
  Q 824.13 355.80 830.22 360.83
  A 0.34 0.34 0.0 0 0 830.76 360.45
  C 820.57 332.66 813.87 311.64 808.28 285.74
  Q 802.85 260.54 809.67 236.03"
/>
<path stroke="#1e120c" vector-effect="non-scaling-stroke" d="
  M 809.67 236.03
  Q 811.63 231.62 813.68 226.99
  Q 814.49 225.17 815.98 225.99
  A 1.60 1.59 -71.1 0 1 816.78 227.63
  C 811.55 261.32 815.88 295.88 827.12 327.97
  A 0.33 0.33 0.0 0 0 827.76 327.87
  Q 828.68 295.70 836.14 265.03
  C 842.55 238.71 850.51 212.86 857.76 186.77
  Q 861.64 172.81 867.22 138.50
  Q 868.38 131.39 868.73 115.25"
/>
<path stroke="#24160f" vector-effect="non-scaling-stroke" d="
  M 868.73 115.25
  L 868.87 88.47
  A 1.68 1.68 0.0 0 0 867.20 86.78
  C 829.16 86.58 791.50 88.68 753.80 92.40
  C 699.39 97.78 645.80 109.12 594.76 128.99
  C 527.73 155.08 469.43 200.31 424.16 255.09"
/>
<path stroke="#412619" vector-effect="non-scaling-stroke" d="
  M 868.73 115.25
  C 829.07 116.40 789.25 119.79 750.40 125.20
  Q 740.59 126.56 730.65 128.37
  Q 699.75 134.00 669.21 141.32
  Q 659.92 143.55 649.92 146.61
  Q 618.58 156.19 599.19 162.87
  Q 557.31 177.28 515.10 200.12
  Q 510.72 202.49 499.90 209.53
  Q 493.68 213.58 484.68 218.89
  Q 462.77 231.79 442.79 247.62
  Q 437.82 251.56 424.70 257.81
  Q 424.15 258.07 424.15 257.46
  L 424.16 255.09"
/>
<path stroke="#8a3e19" vector-effect="non-scaling-stroke" d="
  M 809.67 236.03
  Q 807.70 235.66 806.03 238.20"
/>
<path stroke="#793819" vector-effect="non-scaling-stroke" d="
  M 679.99 285.06
  Q 624.73 262.77 565.47 258.14
  C 549.07 256.86 534.95 256.47 519.55 258.58
  A 0.41 0.41 0.0 0 0 519.58 259.40
  C 604.85 264.74 685.28 287.82 761.26 326.88
  Q 761.58 327.04 761.67 326.70
  Q 761.74 326.41 761.63 326.34
  Q 722.57 302.23 679.99 285.06"
/>
<path stroke="#808080" vector-effect="non-scaling-stroke" d="
  M 1119.98 631.95
  Q 1125.62 626.68 1130.34 620.60
  Q 1156.64 586.65 1179.74 550.47
  C 1192.87 529.91 1204.74 508.61 1218.55 488.47
  C 1239.87 457.38 1264.55 421.25 1279.27 384.76
  Q 1294.74 346.39 1309.17 295.00
  Q 1310.08 291.77 1312.00 281.35"
/>
<path stroke="#6a6a6a" vector-effect="non-scaling-stroke" d="
  M 1312.00 281.35
  L 1313.69 266.21
  A 0.54 0.54 0.0 0 0 1312.84 265.71
  C 1309.46 268.17 1306.29 270.51 1302.33 272.15
  C 1271.62 284.87 1242.17 299.44 1212.59 314.53
  Q 1144.39 349.31 1086.80 399.69
  C 1055.81 426.79 1024.09 455.13 1002.68 489.99
  A 2.39 2.38 -46.4 0 0 1002.74 492.57
  Q 1019.53 517.29 1037.23 541.53
  C 1061.30 574.50 1089.02 604.65 1119.98 631.95"
/>
<path stroke="#e9e9e9" vector-effect="non-scaling-stroke" d="
  M 1312.00 281.35
  C 1299.31 289.20 1285.98 296.54 1273.88 304.43
  Q 1217.94 340.87 1202.28 352.25
  Q 1151.14 389.42 1102.22 429.47
  Q 1081.92 446.09 1062.80 463.53
  A 1.32 1.31 42.3 0 0 1062.90 465.56
  Q 1076.28 475.49 1086.27 489.44
  Q 1131.80 553.05 1119.98 631.95"
/>
<path stroke="#808080" vector-effect="non-scaling-stroke" d="
  M 395.51 662.44
  L 395.49 648.96
  A 0.57 0.57 0.0 0 0 394.92 648.39
  L 391.65 648.40
  A 7.22 6.15 -0.1 0 0 384.44 654.56
  L 384.44 656.88
  A 7.22 6.15 -0.1 0 0 391.67 663.02
  L 394.94 663.01
  A 0.57 0.57 0.0 0 0 395.51 662.44"
/>
<path stroke="#026028" vector-effect="non-scaling-stroke" d="
  M 348.49 665.82
  Q 353.11 688.37 370.99 700.59
  C 378.43 705.67 385.68 706.63 392.17 699.87
  A 1.44 1.38 -21.6 0 0 392.57 699.00
  L 395.29 667.30
  Q 395.35 666.67 394.80 666.38
  L 393.94 665.90
  A 1.26 1.25 22.8 0 0 392.14 666.63
  Q 390.89 670.66 387.91 674.16
  C 380.75 682.56 370.90 676.51 368.21 668.00
  Q 367.39 665.40 367.05 663.15"
/>
<path stroke="#013014" vector-effect="non-scaling-stroke" d="
  M 367.05 663.15
  L 366.40 652.17
  A 0.85 0.84 -3.7 0 0 365.49 651.38
  L 346.49 652.76
  Q 345.83 652.81 345.77 653.47
  Q 345.11 660.28 348.49 665.82"
/>
<path stroke="#028e3b" vector-effect="non-scaling-stroke" d="
  M 367.05 663.15
  L 348.49 665.82"
/>
<path stroke="#808080" vector-effect="non-scaling-stroke" d="
  M 185.87 870.11
  C 218.97 887.94 254.42 904.51 292.04 908.26
  A 0.34 0.34 0.0 0 0 292.23 907.62
  C 268.25 895.05 240.73 882.55 218.79 869.46
  Q 201.05 858.88 181.06 862.30
  Q 179.48 862.57 179.41 864.01
  C 179.29 866.57 183.59 868.88 185.87 870.11"
/>
<path stroke="#793819" vector-effect="non-scaling-stroke" d="
  M 433.81 505.03
  C 436.60 502.43 439.25 498.36 440.20 494.49
  Q 449.47 456.67 435.09 420.71
  C 433.16 415.89 425.32 400.36 419.16 400.85
  A 2.11 2.10 74.5 0 0 417.45 403.88
  Q 421.45 411.99 424.97 420.78
  C 434.77 445.21 435.15 470.95 430.23 496.84
  C 429.71 499.58 429.64 502.21 430.74 504.47
  A 1.94 1.94 0.0 0 0 433.81 505.03"
/>
<path stroke="#793819" vector-effect="non-scaling-stroke" d="
  M 533.60 490.73
  C 536.33 480.17 541.11 470.58 544.43 460.23
  Q 544.65 459.55 544.53 459.32
  A 1.16 1.16 0.0 0 0 542.97 458.85
  C 533.83 463.66 530.87 470.32 527.20 480.63
  Q 515.91 512.31 523.64 545.72
  Q 524.64 550.04 528.23 550.28
  A 2.45 2.45 0.0 0 0 530.83 547.53
  C 528.51 528.95 528.89 508.90 533.60 490.73"
/>
<path stroke="#e66526" vector-effect="non-scaling-stroke" d="
  M 563.79 545.39
  C 565.56 546.07 567.03 546.73 568.93 547.08
  Q 603.25 553.53 636.25 565.01
  Q 721.60 594.71 803.44 633.00
  C 822.13 641.74 842.52 653.37 858.44 660.31
  Q 861.88 661.81 867.66 660.59"
/>
<path stroke="#793819" vector-effect="non-scaling-stroke" d="
  M 867.66 660.59
  L 878.26 668.59
  A 0.41 0.41 0.0 0 0 878.88 668.08
  C 874.73 659.30 869.66 653.14 862.05 645.77
  C 852.18 636.20 842.06 625.81 830.92 618.07
  Q 815.71 607.51 797.32 596.17
  Q 747.85 565.66 696.23 538.95
  C 653.83 517.01 611.44 499.26 566.29 488.87
  A 0.48 0.48 0.0 0 1 565.96 488.19
  L 576.25 467.49
  A 0.23 0.22 -7.0 0 0 575.90 467.22
  Q 549.23 489.19 548.56 523.29
  C 548.35 534.25 551.09 542.95 561.95 546.30
  Q 562.99 546.62 563.79 545.39"
/>
<path stroke="#6e2e0e" vector-effect="non-scaling-stroke" d="
  M 867.66 660.59
  C 784.73 598.74 689.67 560.66 587.98 542.67
  C 579.32 541.14 571.08 538.48 563.79 545.39"
/>
<path stroke="#f8b798" vector-effect="non-scaling-stroke" d="
  M 538.93 800.32
  Q 557.79 825.42 587.88 834.67
  Q 615.18 843.06 645.33 843.26
  C 666.79 843.40 689.51 843.74 715.25 843.78
  Q 716.55 843.78 716.26 842.87"
/>
<path stroke="#793819" vector-effect="non-scaling-stroke" d="
  M 716.26 842.87
  Q 717.32 844.97 718.75 844.46
  Q 729.88 840.49 737.21 830.74"
/>
<path stroke="#e66526" vector-effect="non-scaling-stroke" d="
  M 737.21 830.74
  Q 747.24 826.13 754.15 818.40
  Q 780.41 789.01 805.47 755.22
  Q 809.25 750.13 812.66 742.26"
/>
<path stroke="#793819" vector-effect="non-scaling-stroke" d="
  M 812.66 742.26
  Q 817.23 744.18 819.50 743.78
  Q 832.94 741.45 846.26 740.12
  A 0.77 0.77 0.0 0 0 846.70 738.79
  C 836.32 729.34 822.14 723.76 809.33 718.15
  C 761.53 697.20 710.47 679.34 662.49 663.58
  Q 622.91 650.58 580.70 645.51
  C 564.26 643.53 547.78 644.00 531.46 645.51
  A 0.75 0.74 6.6 0 1 530.68 644.53
  C 537.87 623.29 546.10 602.39 553.81 581.34
  Q 556.92 572.86 561.49 565.02
  A 0.85 0.85 0.0 0 0 560.70 563.75
  Q 557.47 563.98 557.95 560.82
  A 0.43 0.43 0.0 0 0 557.22 560.45
  C 545.82 571.88 538.23 584.48 530.98 599.42
  Q 518.13 625.92 513.77 655.25
  C 512.69 662.57 516.28 663.51 522.57 663.27
  A 1.17 1.17 0.0 0 1 523.76 664.71
  Q 512.14 715.01 522.68 765.04
  C 524.92 775.68 528.40 786.35 534.92 794.68
  Q 537.04 797.40 538.93 800.32"
/>
<path stroke="#6e2e0e" vector-effect="non-scaling-stroke" d="
  M 812.66 742.26
  L 799.89 735.53
  A 0.90 0.89 -61.4 0 0 798.68 735.89
  C 789.72 752.30 780.64 769.02 769.69 784.36
  Q 753.28 807.34 737.21 830.74"
/>
<path stroke="#808080" vector-effect="non-scaling-stroke" d="
  M 716.26 842.87
  L 725.42 825.47"
/>
<path stroke="#607b80" vector-effect="non-scaling-stroke" d="
  M 725.42 825.47
  C 745.13 794.28 762.14 764.24 772.00 729.28
  Q 772.14 728.78 771.79 728.39
  Q 771.20 727.72 770.26 726.98
  Q 755.51 715.45 739.79 707.70
  Q 704.89 690.51 666.65 679.08
  Q 665.76 678.82 665.52 679.72
  L 661.92 693.59"
/>
<path stroke="#808080" vector-effect="non-scaling-stroke" d="
  M 661.92 693.59
  Q 648.39 721.70 619.73 731.54
  Q 604.15 736.89 591.00 735.20
  C 563.00 731.60 547.62 706.01 548.45 679.25
  C 548.64 673.06 548.75 666.86 549.09 660.68
  A 0.62 0.62 0.0 0 0 548.46 660.03
  L 533.52 660.33
  A 1.21 1.21 0.0 0 0 532.36 661.29
  Q 524.24 700.57 529.68 740.13
  Q 529.72 740.41 532.05 758.08
  Q 534.74 778.48 541.89 797.87
  Q 542.47 799.46 541.54 799.85
  Q 540.70 800.21 538.93 800.32"
/>
<path stroke="#dffaff" vector-effect="non-scaling-stroke" d="
  M 661.92 693.59
  Q 707.43 708.09 748.95 731.61
  C 751.31 732.95 753.36 733.98 752.60 736.78
  Q 742.87 772.34 727.01 812.50
  Q 724.49 818.90 725.42 825.47"
/>
<path stroke="#026028" vector-effect="non-scaling-stroke" d="
  M 557.09 669.79
  Q 555.64 692.10 568.04 709.62
  Q 572.04 715.28 576.73 718.13
  C 590.66 726.57 610.99 722.53 624.83 715.94
  Q 642.79 707.38 653.61 689.07"
/>
<path stroke="#013014" vector-effect="non-scaling-stroke" d="
  M 653.61 689.07
  L 659.35 678.34
  A 0.93 0.93 0.0 0 0 658.74 677.00
  L 644.72 673.75
  A 0.83 0.82 -63.4 0 0 643.89 674.03
  L 635.04 684.56"
/>
<path stroke="#026028" vector-effect="non-scaling-stroke" d="
  M 635.04 684.56
  Q 615.28 695.79 601.26 679.21
  Q 600.85 678.74 600.45 679.22
  C 596.01 684.52 591.82 689.77 585.03 690.45
  C 573.67 691.57 567.45 678.69 565.77 669.64"
/>
<path stroke="#013014" vector-effect="non-scaling-stroke" d="
  M 565.77 669.64
  L 565.69 661.38
  Q 565.68 660.68 564.99 660.70
  L 558.50 660.87
  A 0.69 0.67 -87.6 0 0 557.84 661.49
  L 557.09 669.79"
/>
<path stroke="#028e3b" vector-effect="non-scaling-stroke" d="
  M 565.77 669.64
  L 557.09 669.79"
/>
<path stroke="#028e3b" vector-effect="non-scaling-stroke" d="
  M 635.04 684.56
  L 653.61 689.07"
/>
<path stroke="#808080" vector-effect="non-scaling-stroke" d="
  M 602.99 676.57
  C 612.64 692.02 632.34 686.42 640.38 673.24
  A 0.57 0.57 0.0 0 0 640.01 672.38
  L 606.49 664.95
  A 0.82 0.82 0.0 0 0 605.52 665.54
  L 602.85 675.63
  Q 602.72 676.13 602.99 676.57"
/>
<path stroke="#793819" vector-effect="non-scaling-stroke" d="
  M 961.20 864.63
  Q 960.57 864.82 960.13 865.10
  A 0.33 0.33 0.0 0 0 960.24 865.71
  L 977.80 869.07
  A 0.67 0.66 6.0 0 0 978.59 868.44
  L 978.81 862.02
  Q 978.83 861.26 978.08 861.33
  Q 969.40 862.19 961.20 864.63"
/>
</g>
<path fill="#ffffff" d="
  M 187.40 824.21
  A 0.89 0.89 0.0 0 0 188.20 822.93
  Q 175.44 795.98 172.92 766.37
  Q 171.78 753.00 171.09 739.59
  Q 170.34 725.20 170.59 723.38
  C 171.63 715.74 175.49 712.22 180.30 706.60
  Q 193.41 691.26 206.91 676.27
  Q 216.46 665.66 219.72 660.93
  Q 226.35 651.32 230.51 640.24
  C 230.80 639.46 230.90 638.37 230.44 637.60
  C 220.96 621.52 216.11 596.80 230.26 581.78
  Q 239.50 571.98 246.56 560.62
  Q 250.76 553.85 254.90 543.38
  Q 267.64 511.11 278.01 478.02
  C 283.79 459.60 290.76 441.71 297.24 423.60
  Q 300.79 413.69 304.41 404.95
  Q 340.92 316.82 380.55 237.25
  C 384.94 228.44 390.18 222.28 398.00 212.68
  Q 420.85 184.68 442.41 162.66
  C 451.54 153.32 461.01 148.11 474.78 140.36
  C 497.91 127.34 521.66 115.48 546.23 105.41
  C 571.04 95.23 594.46 83.54 622.60 79.72
  Q 631.91 78.46 635.52 77.55
  C 643.28 75.59 655.32 69.84 666.31 67.77
  Q 683.51 64.53 700.72 61.34
  Q 746.16 52.91 796.26 50.40
  Q 843.96 48.01 879.75 49.16
  C 885.30 49.34 891.22 57.24 893.69 61.82
  Q 901.42 76.19 904.25 92.27
  C 909.94 124.63 909.20 156.78 901.91 188.76
  C 893.18 227.04 883.36 265.46 875.83 303.54
  A 2.14 2.10 -56.4 0 0 876.13 305.09
  C 879.58 310.48 883.55 308.71 887.94 305.52
  C 916.43 284.84 944.03 268.10 976.37 255.47
  C 1015.29 240.28 1054.96 227.74 1095.77 218.76
  Q 1123.38 212.69 1151.02 206.70
  Q 1181.04 200.20 1216.38 195.40
  Q 1236.43 192.68 1252.01 191.96
  Q 1270.25 191.13 1288.49 190.50
  Q 1293.26 190.34 1297.99 189.69
  Q 1323.27 186.22 1348.76 184.92
  C 1361.38 184.27 1374.55 184.27 1386.75 188.02
  C 1390.44 189.16 1392.74 190.94 1393.76 194.94
  C 1397.40 209.12 1397.22 225.51 1396.71 239.50
  Q 1396.37 248.87 1393.03 258.33
  Q 1367.08 331.85 1342.27 405.76
  C 1341.08 409.30 1338.28 414.08 1335.72 417.71
  Q 1303.30 463.60 1271.15 509.68
  C 1241.41 552.29 1213.49 595.82 1182.76 638.04
  A 1.69 1.69 0.0 0 0 1183.05 640.33
  C 1190.45 646.48 1199.79 652.74 1203.58 662.11
  C 1209.70 677.25 1210.63 695.97 1200.64 709.81
  A 1.59 1.58 30.9 0 0 1201.24 712.17
  C 1208.37 715.62 1217.34 720.52 1221.71 726.40
  C 1232.51 740.98 1219.20 760.06 1208.64 770.40
  C 1183.79 794.73 1156.28 817.37 1126.74 835.77
  C 1108.79 846.96 1088.47 853.40 1071.33 865.84
  C 1052.78 879.30 1067.83 899.29 1080.21 909.04
  Q 1092.13 918.41 1104.90 926.61
  C 1118.23 935.17 1128.15 947.04 1131.10 962.25
  Q 1132.95 971.83 1130.97 977.41
  C 1127.50 987.18 1116.60 989.58 1107.06 986.00
  C 1096.32 981.97 1086.80 977.86 1076.27 976.38
  Q 1058.25 973.86 1040.22 975.08
  C 994.56 978.14 960.85 1005.48 946.00 1048.26
  C 940.21 1064.93 937.29 1080.80 939.58 1097.96
  Q 942.19 1117.59 952.88 1134.38
  Q 957.36 1141.42 957.85 1143.59
  Q 959.36 1150.20 953.25 1155.53
  C 933.89 1172.41 905.29 1178.84 879.75 1181.03
  Q 854.14 1183.23 831.93 1170.52
  A 0.80 0.80 0.0 0 0 830.84 1170.80
  Q 826.46 1178.13 821.99 1185.75
  Q 819.64 1189.76 821.78 1193.96
  Q 825.13 1200.52 829.65 1206.37
  Q 840.48 1220.38 849.90 1228.86
  Q 852.12 1230.85 860.13 1236.35
  Q 866.19 1240.51 870.62 1249.37
  Q 875.59 1259.33 872.21 1271.00
  Q 870.69 1276.27 865.02 1291.35
  Q 860.53 1303.32 857.03 1309.66
  C 835.59 1348.57 793.45 1363.05 753.49 1374.21
  Q 703.30 1388.23 648.99 1397.15
  Q 627.22 1400.72 608.25 1401.87
  C 590.06 1402.98 571.79 1403.82 553.64 1405.47
  C 537.34 1406.95 519.31 1403.53 503.90 1398.30
  C 479.82 1390.12 462.66 1372.99 451.96 1349.55
  Q 438.91 1320.99 431.36 1290.79
  A 1.41 1.41 0.0 0 0 429.70 1289.76
  C 419.74 1291.84 400.96 1290.26 400.04 1276.66
  Q 399.71 1271.73 402.17 1263.97
  Q 405.79 1252.57 411.49 1242.05
  Q 424.14 1218.71 436.93 1195.43
  Q 442.87 1184.63 447.78 1170.38
  C 453.70 1153.19 457.20 1138.85 453.69 1121.52
  C 449.85 1102.60 435.65 1092.67 417.13 1092.27
  Q 407.25 1092.06 398.24 1095.28
  Q 370.42 1105.22 362.70 1107.56
  Q 336.09 1115.66 307.27 1110.35
  Q 287.61 1106.73 270.78 1098.93
  C 258.68 1093.33 246.14 1084.72 234.77 1076.52
  Q 226.89 1070.83 220.23 1063.78
  Q 174.95 1015.85 155.86 952.63
  C 150.42 934.62 143.84 917.30 142.82 898.29
  Q 141.98 882.62 140.57 866.99
  C 139.98 860.43 140.48 854.04 141.31 848.02
  C 144.40 825.50 169.42 824.26 187.40 824.21
  Z
  M 441.36 1047.16
  C 451.07 1040.99 461.34 1035.00 472.07 1031.00
  C 479.43 1028.26 487.39 1024.84 494.06 1023.05
  Q 509.56 1018.88 527.50 1017.85
  Q 556.61 1016.17 582.49 1022.23
  Q 597.83 1036.68 608.76 1054.79
  Q 609.11 1055.37 609.23 1054.71
  C 611.20 1044.47 609.54 1034.62 602.90 1026.29
  C 582.83 1001.07 541.50 995.31 511.45 1001.80
  Q 486.73 1007.14 464.62 1019.40
  Q 441.84 1032.02 419.34 1045.14
  Q 407.67 1051.95 401.76 1054.65
  Q 359.60 1073.90 312.13 1063.92
  Q 303.45 1049.91 290.66 1039.07
  Q 289.18 1037.82 287.54 1038.58
  A 2.15 2.14 -21.4 0 0 286.40 1041.16
  L 292.52 1060.62
  Q 276.00 1057.71 260.08 1054.65
  C 257.44 1054.14 253.81 1053.09 252.27 1051.47
  C 221.71 1019.39 195.96 979.56 182.35 937.28
  Q 177.11 920.98 172.08 904.68
  A 0.11 0.10 -69.8 0 1 172.27 904.59
  Q 191.65 937.04 217.99 964.02
  C 233.93 980.35 256.53 975.75 275.22 968.25
  C 296.50 959.71 315.23 947.78 333.12 933.48
  C 338.82 928.92 342.97 924.70 344.79 917.40
  Q 344.90 916.93 344.58 916.57
  Q 341.01 912.58 337.26 910.15
  Q 299.56 885.65 256.34 868.28
  Q 255.33 867.88 256.40 867.71
  C 328.36 856.51 389.13 821.83 421.40 754.17
  Q 423.71 749.32 424.59 740.79
  Q 429.21 728.88 430.77 717.21
  A 2.39 2.38 -89.4 0 1 432.88 715.14
  Q 470.34 711.13 495.08 737.15
  C 498.33 740.57 502.00 745.43 503.25 749.50
  Q 507.84 764.35 512.51 779.20
  C 517.28 794.37 522.17 805.57 531.32 816.94
  C 552.34 843.07 580.64 855.58 613.50 860.42
  C 646.29 865.24 678.38 867.00 711.00 865.81
  Q 740.01 864.76 768.95 865.16
  C 797.68 875.04 827.52 891.05 846.96 914.88
  L 849.61 929.85
  Q 825.63 898.42 791.43 879.70
  C 784.07 875.67 778.59 873.74 771.03 876.69
  Q 768.87 877.54 769.32 879.29
  Q 769.45 879.84 769.98 880.03
  Q 802.74 892.17 819.56 923.51
  Q 836.96 955.92 841.61 992.08
  Q 826.54 1039.06 793.88 1076.62
  Q 793.51 1077.05 793.71 1077.58
  L 794.55 1079.78
  Q 780.53 1086.04 765.58 1088.00
  A 0.51 0.51 0.0 0 0 765.26 1088.83
  Q 765.58 1089.19 766.13 1089.18
  Q 782.96 1088.87 799.21 1085.30
  Q 806.89 1091.17 812.10 1098.98
  C 792.09 1135.92 780.82 1177.90 782.25 1220.00
  Q 782.46 1226.10 785.87 1231.02
  C 787.98 1234.07 792.28 1233.13 791.82 1228.97
  Q 790.09 1213.14 792.43 1197.17
  Q 792.54 1196.43 792.86 1197.10
  Q 805.17 1222.54 823.47 1244.03
  Q 829.23 1250.80 837.14 1256.34
  C 842.76 1260.27 852.59 1262.70 858.06 1257.16
  C 860.03 1255.16 858.38 1253.00 855.93 1252.65
  C 842.54 1250.72 830.43 1237.15 822.55 1226.45
  Q 807.12 1205.51 794.52 1182.34
  A 2.48 2.46 35.5 0 1 794.25 1180.75
  Q 798.94 1151.91 810.24 1124.98
  A 0.47 0.47 0.0 0 1 811.07 1124.91
  Q 813.44 1128.74 816.84 1131.88
  Q 857.01 1169.00 909.99 1151.47
  Q 923.79 1146.91 935.02 1137.97
  A 0.73 0.73 0.0 0 0 935.12 1136.92
  C 917.96 1117.36 913.97 1096.53 914.67 1071.26
  Q 915.80 1030.62 937.06 995.57
  A 0.60 0.59 -78.5 0 0 936.47 994.67
  L 934.03 995.00
  Q 933.27 995.10 933.89 994.65
  Q 970.36 968.25 1014.13 959.22
  C 1034.32 955.05 1055.62 955.22 1075.99 958.15
  Q 1087.45 959.80 1098.24 963.98
  A 0.81 0.81 0.0 0 0 1099.33 963.36
  C 1100.52 956.15 1094.92 951.63 1090.35 946.84
  C 1060.05 915.11 1025.49 888.18 984.59 871.45
  A 0.71 0.70 -74.7 0 1 984.17 870.71
  L 985.73 859.30
  Q 985.80 858.82 986.27 858.71
  Q 1054.29 843.30 1114.56 808.75
  C 1147.14 790.06 1173.78 765.28 1194.54 733.86
  Q 1196.56 730.81 1196.26 726.26
  A 1.40 1.40 0.0 0 0 1194.04 725.22
  L 1191.13 727.32
  Q 1190.71 727.62 1190.23 727.45
  Q 1182.35 724.66 1158.23 716.54
  C 1138.79 710.01 1121.72 697.64 1105.55 684.71
  Q 1105.57 684.63 1105.59 684.55
  Q 1141.59 700.61 1181.39 698.26
  Q 1186.20 697.98 1189.11 694.51
  A 1.24 1.24 0.0 0 0 1188.98 692.79
  L 1125.31 636.44
  A 0.58 0.58 0.0 0 1 1125.29 635.59
  C 1167.74 594.61 1206.58 549.87 1239.46 500.71
  C 1264.11 463.85 1286.35 425.96 1308.07 387.33
  Q 1325.43 356.45 1340.57 322.32
  Q 1362.53 272.79 1370.27 220.11
  C 1370.64 217.57 1370.08 215.34 1367.25 215.11
  Q 1359.13 214.44 1349.50 214.88
  C 1333.42 215.61 1317.25 216.21 1301.32 218.12
  Q 1130.33 238.63 966.45 299.44
  Q 918.61 317.20 876.79 339.66
  C 863.55 346.78 852.04 355.05 840.88 364.49
  A 0.55 0.55 0.0 0 1 840.03 364.32
  C 837.62 359.60 830.79 344.90 832.18 339.98
  Q 835.52 328.12 836.73 320.24
  Q 842.76 280.98 853.57 242.75
  Q 860.35 218.75 866.91 194.68
  Q 869.94 183.58 871.57 175.23
  Q 876.97 147.63 878.64 119.51
  Q 879.90 98.23 872.11 78.59
  Q 871.86 77.96 871.17 77.92
  Q 756.04 72.14 644.67 101.38
  C 546.79 127.09 464.78 182.37 404.52 263.50
  Q 385.04 289.74 373.95 321.21
  C 372.52 325.28 367.95 328.47 365.54 332.04
  Q 364.09 334.19 363.11 336.81
  C 361.51 341.08 366.27 342.70 368.60 339.83
  A 0.48 0.48 0.0 0 1 369.43 340.29
  Q 336.12 439.59 299.79 537.61
  Q 299.65 537.97 299.32 538.39
  Q 299.08 538.70 298.89 539.06
  Q 298.65 539.48 298.26 539.78
  Q 285.45 549.39 264.50 566.99
  C 250.33 578.89 236.98 593.55 231.62 610.46
  A 0.43 0.43 0.0 0 0 232.27 610.95
  L 287.03 575.03
  A 0.34 0.34 0.0 0 1 287.54 575.43
  Q 271.99 620.54 253.35 664.30
  C 246.16 681.18 240.10 694.37 230.57 708.29
  C 225.87 715.16 217.81 723.79 209.51 725.93
  Q 208.94 726.07 208.65 725.55
  L 206.28 721.24
  A 1.59 1.59 0.0 0 0 203.30 721.89
  C 202.00 739.56 213.29 756.72 225.71 768.06
  A 0.81 0.81 0.0 0 1 225.69 769.28
  Q 225.50 769.45 225.03 769.23
  Q 215.64 764.72 206.53 760.30
  A 0.94 0.94 0.0 0 0 205.25 760.78
  C 201.52 769.68 201.49 777.82 204.08 787.58
  Q 216.15 833.06 257.00 857.83
  A 0.22 0.21 -37.8 0 1 256.95 858.22
  Q 248.30 860.74 239.34 860.87
  C 232.42 860.97 226.48 859.04 219.40 857.10
  Q 195.35 850.47 165.00 850.53
  Q 161.76 850.54 158.65 853.76
  Q 158.33 854.09 158.33 854.53
  Q 158.06 868.18 160.82 878.25
  Q 162.88 885.76 164.40 900.27
  C 166.24 917.91 171.41 937.88 178.22 955.15
  Q 200.40 1011.36 243.44 1054.32
  Q 246.75 1057.62 249.25 1058.50
  C 273.76 1067.17 299.61 1073.30 325.40 1076.49
  C 363.34 1081.18 398.35 1071.52 430.67 1051.26
  A 0.87 0.86 41.9 0 1 431.52 1051.22
  Q 447.70 1059.41 462.77 1068.75
  C 479.23 1078.96 490.50 1092.91 494.18 1112.25
  C 504.15 1164.69 466.14 1213.44 431.95 1248.76
  A 1.15 1.15 0.0 0 0 432.43 1250.66
  Q 433.50 1251.00 435.08 1250.55
  Q 453.10 1245.40 469.96 1236.69
  Q 470.63 1236.34 470.43 1237.07
  Q 462.10 1267.01 455.21 1297.30
  C 454.65 1299.77 454.81 1306.50 458.26 1306.94
  A 1.16 1.15 -80.5 0 0 459.53 1306.03
  C 461.31 1297.60 463.44 1289.58 466.42 1281.14
  C 469.18 1273.34 472.28 1265.60 474.36 1257.76
  Q 477.66 1245.29 480.49 1233.19
  A 3.96 3.94 -10.1 0 1 482.19 1230.77
  Q 487.74 1227.20 493.58 1223.32
  C 496.16 1221.60 495.69 1217.90 492.47 1217.35
  Q 487.53 1216.51 483.19 1218.97
  Q 471.92 1225.37 459.97 1231.67
  A 0.28 0.27 -81.1 0 1 459.65 1231.23
  C 498.03 1193.74 532.46 1122.18 488.17 1074.59
  C 474.89 1060.33 459.91 1053.92 441.36 1047.16
  Z
  M 428.3579 920.7460
  A 6.58 1.91 130.6 0 0 434.0902 916.9930
  A 6.58 1.91 130.6 0 0 436.9221 910.7540
  A 6.58 1.91 130.6 0 0 431.1898 914.5070
  A 6.58 1.91 130.6 0 0 428.3579 920.7460
  Z
  M 393.2105 951.7188
  A 6.61 2.96 128.0 0 0 399.6125 948.3324
  A 6.61 2.96 128.0 0 0 401.3495 941.3012
  A 6.61 2.96 128.0 0 0 394.9475 944.6876
  A 6.61 2.96 128.0 0 0 393.2105 951.7188
  Z
  M 448.3932 949.5859
  A 9.43 3.39 -40.1 0 0 438.9964 953.0669
  A 9.43 3.39 -40.1 0 0 433.9668 961.7341
  A 9.43 3.39 -40.1 0 0 443.3636 958.2531
  A 9.43 3.39 -40.1 0 0 448.3932 949.5859
  Z
  M 622.41 1072.84
  C 621.51 1078.05 616.97 1077.14 613.31 1075.20
  C 606.00 1071.33 597.77 1062.51 588.40 1058.17
  C 586.41 1057.24 581.36 1056.20 580.28 1058.98
  A 2.07 2.06 20.4 0 0 581.52 1061.68
  C 590.75 1064.91 597.63 1069.77 604.42 1076.93
  C 608.97 1081.71 613.45 1089.29 621.24 1087.27
  Q 632.31 1084.40 632.60 1072.50
  Q 633.00 1056.58 625.59 1042.65
  Q 625.26 1042.04 624.90 1041.84
  Q 624.25 1041.48 623.61 1042.09
  A 1.25 1.23 -25.4 0 0 623.23 1043.13
  Q 624.97 1058.03 622.41 1072.84
  Z"
/>
<path fill="#010101" d="
  M 1105.59 684.55
  L 1093.00 675.21
  A 1.50 1.50 0.0 0 1 1093.22 672.67
  C 1095.09 671.73 1097.77 671.96 1099.87 672.85
  Q 1138.86 689.42 1181.80 691.79
  A 0.51 0.51 0.0 0 0 1182.07 690.84
  Q 1173.75 686.15 1165.79 680.23
  Q 1142.55 662.95 1120.06 644.69
  Q 1069.01 603.23 1029.66 550.55
  Q 1005.40 518.07 981.20 477.57
  C 974.21 465.87 968.63 456.95 964.13 445.55
  Q 961.92 439.96 959.47 434.74
  Q 959.80 433.47 961.20 433.45
  A 0.89 0.89 0.0 0 0 961.99 432.97
  C 963.39 430.30 964.30 428.07 967.84 428.50
  Q 968.44 428.57 968.36 429.18
  Q 967.51 435.44 970.01 440.24
  Q 981.74 462.67 996.17 484.31
  A 1.48 1.47 54.3 0 0 998.30 484.66
  Q 998.77 484.29 999.23 483.47
  C 1016.79 452.38 1038.73 426.45 1066.55 401.79
  C 1123.19 351.57 1189.36 310.88 1258.80 281.34
  Q 1279.30 272.62 1303.34 266.84
  Q 1305.09 266.42 1307.60 265.43
  C 1310.22 264.39 1312.91 264.31 1314.90 262.08
  A 1.56 1.56 0.0 0 1 1317.41 262.32
  C 1323.21 272.04 1321.43 286.57 1318.80 297.00
  Q 1307.05 343.44 1289.15 390.12
  Q 1288.95 390.64 1288.99 390.68
  A 0.58 0.58 0.0 0 0 1289.89 390.54
  Q 1305.36 362.71 1319.72 334.44
  Q 1347.28 280.16 1359.57 220.57
  A 1.70 1.70 0.0 0 0 1357.59 218.56
  C 1311.79 227.14 1265.44 232.32 1219.69 241.34
  Q 1153.25 254.45 1104.74 267.00
  Q 1035.37 284.94 957.48 314.25
  C 918.24 329.01 885.21 343.38 851.49 366.67
  L 844.41 372.40
  A 0.78 0.78 0.0 0 0 844.17 373.27
  Q 848.45 385.63 857.31 395.24
  Q 857.33 395.27 857.33 395.30
  Q 857.32 395.45 857.23 395.57
  Q 857.08 395.77 856.88 395.61
  Q 852.66 392.00 849.40 390.12
  Q 824.56 375.78 790.88 357.91
  C 758.60 340.78 727.41 325.55 695.37 314.07
  C 615.72 285.52 526.73 274.68 444.51 298.21
  Q 409.27 308.29 380.58 328.79
  Q 378.44 330.31 377.99 332.13
  C 361.66 398.14 338.83 463.90 316.69 525.83
  A 0.84 0.68 61.0 0 0 316.64 526.11
  Q 316.61 527.45 317.43 526.88
  Q 364.48 494.59 417.90 476.74
  A 1.76 1.75 -11.3 0 0 419.10 474.95
  C 418.23 462.83 414.62 451.94 411.26 440.58
  C 410.76 438.89 411.39 437.53 412.93 436.85
  A 2.40 2.40 0.0 0 1 415.88 437.70
  Q 431.63 461.04 427.17 489.74
  C 425.79 498.63 422.83 508.34 413.56 511.74
  Q 413.62 510.48 413.55 510.31
  Q 412.76 508.14 410.87 509.46
  C 408.01 511.46 405.51 513.65 402.41 515.08
  Q 354.16 537.36 307.51 562.84
  C 300.82 566.49 299.03 573.53 297.48 580.68
  L 270.64 651.47
  A 0.55 0.55 0.0 0 0 271.22 652.21
  C 279.82 651.15 289.17 648.65 296.61 647.47
  Q 334.60 641.47 372.49 634.87
  C 382.61 633.10 406.67 628.36 408.25 616.26
  Q 411.68 589.87 416.03 563.62
  C 416.78 559.08 416.63 554.63 416.76 550.04
  C 416.86 546.61 418.34 543.98 422.11 544.71
  Q 422.62 544.81 422.95 545.21
  C 430.48 554.06 427.57 575.16 426.28 588.14
  C 424.41 606.80 421.81 625.38 415.00 642.69
  Q 414.79 643.22 414.25 643.40
  L 405.58 646.36
  Q 404.70 646.65 404.82 647.57
  C 407.29 666.08 407.17 683.61 404.12 702.37
  C 401.66 717.53 400.02 733.63 395.27 747.51
  Q 390.51 761.41 378.15 768.92
  Q 376.37 770.00 375.40 768.16
  Q 374.95 767.32 375.27 766.49
  Q 377.42 763.94 379.16 758.98
  Q 386.50 738.05 389.06 715.89
  A 0.41 0.40 -0.1 0 0 388.60 715.44
  C 360.93 719.23 343.93 691.94 340.41 667.93
  L 340.89 653.92
  Q 340.91 653.35 340.34 653.37
  Q 323.29 654.13 306.32 656.02
  C 302.87 656.40 299.78 658.05 300.02 661.76
  Q 301.87 691.33 310.48 725.50
  Q 311.67 730.22 311.40 742.85
  Q 309.58 742.58 308.87 740.86
  Q 293.36 703.40 294.24 662.36
  C 294.27 660.78 293.42 658.97 291.75 659.02
  Q 282.28 659.30 272.80 659.65
  C 271.06 659.72 270.17 659.19 269.11 657.93
  A 0.95 0.95 0.0 0 0 267.49 658.23
  C 258.08 685.50 240.27 721.11 212.08 731.87
  A 0.53 0.53 0.0 0 0 211.81 732.62
  L 220.50 748.15
  L 240.60 776.39
  A 1.51 1.49 50.5 0 1 240.42 778.34
  C 233.16 785.37 217.31 774.75 211.34 770.12
  A 0.44 0.44 0.0 0 0 210.63 770.54
  Q 219.79 827.60 270.03 855.18
  A 2.37 2.37 0.0 0 0 271.64 855.43
  C 315.00 846.62 354.77 827.33 384.76 794.21
  Q 403.27 773.86 413.79 754.03
  Q 418.27 745.57 420.40 732.18
  Q 420.44 731.96 420.55 731.79
  Q 420.71 731.54 420.80 731.45
  A 0.59 0.58 -30.7 0 1 421.77 731.69
  L 424.59 740.79
  Q 423.71 749.32 421.40 754.17
  C 389.13 821.83 328.36 856.51 256.40 867.71
  Q 255.33 867.88 256.34 868.28
  Q 299.56 885.65 337.26 910.15
  Q 341.01 912.58 344.58 916.57
  Q 344.90 916.93 344.79 917.40
  C 342.97 924.70 338.82 928.92 333.12 933.48
  C 315.23 947.78 296.50 959.71 275.22 968.25
  C 256.53 975.75 233.93 980.35 217.99 964.02
  Q 191.65 937.04 172.27 904.59
  A 0.11 0.10 -69.8 0 0 172.08 904.68
  Q 177.11 920.98 182.35 937.28
  C 195.96 979.56 221.71 1019.39 252.27 1051.47
  C 253.81 1053.09 257.44 1054.14 260.08 1054.65
  Q 276.00 1057.71 292.52 1060.62
  L 312.13 1063.92
  Q 359.60 1073.90 401.76 1054.65
  Q 407.67 1051.95 419.34 1045.14
  Q 441.84 1032.02 464.62 1019.40
  Q 486.73 1007.14 511.45 1001.80
  C 541.50 995.31 582.83 1001.07 602.90 1026.29
  C 609.54 1034.62 611.20 1044.47 609.23 1054.71
  Q 609.11 1055.37 608.76 1054.79
  Q 597.83 1036.68 582.49 1022.23
  C 561.40 1003.19 528.86 999.36 502.83 1007.89
  Q 496.33 1010.02 484.68 1016.17
  Q 469.71 1024.07 454.70 1031.90
  Q 450.62 1034.03 439.37 1042.42
  Q 438.98 1042.71 438.93 1043.20
  Q 438.60 1046.33 441.36 1047.16
  C 459.91 1053.92 474.89 1060.33 488.17 1074.59
  C 532.46 1122.18 498.03 1193.74 459.65 1231.23
  A 0.28 0.27 -81.1 0 0 459.97 1231.67
  Q 471.92 1225.37 483.19 1218.97
  Q 487.53 1216.51 492.47 1217.35
  C 495.69 1217.90 496.16 1221.60 493.58 1223.32
  Q 487.74 1227.20 482.19 1230.77
  A 3.96 3.94 -10.1 0 0 480.49 1233.19
  Q 477.66 1245.29 474.36 1257.76
  C 472.28 1265.60 469.18 1273.34 466.42 1281.14
  C 463.44 1289.58 461.31 1297.60 459.53 1306.03
  A 1.16 1.15 -80.5 0 1 458.26 1306.94
  C 454.81 1306.50 454.65 1299.77 455.21 1297.30
  Q 462.10 1267.01 470.43 1237.07
  Q 470.63 1236.34 469.96 1236.69
  Q 453.10 1245.40 435.08 1250.55
  Q 433.50 1251.00 432.43 1250.66
  A 1.15 1.15 0.0 0 1 431.95 1248.76
  C 466.14 1213.44 504.15 1164.69 494.18 1112.25
  C 490.50 1092.91 479.23 1078.96 462.77 1068.75
  Q 447.70 1059.41 431.52 1051.22
  A 0.87 0.86 41.9 0 0 430.67 1051.26
  C 398.35 1071.52 363.34 1081.18 325.40 1076.49
  C 299.61 1073.30 273.76 1067.17 249.25 1058.50
  Q 246.75 1057.62 243.44 1054.32
  Q 200.40 1011.36 178.22 955.15
  C 171.41 937.88 166.24 917.91 164.40 900.27
  Q 162.88 885.76 160.82 878.25
  Q 158.06 868.18 158.33 854.53
  Q 158.33 854.09 158.65 853.76
  Q 161.76 850.54 165.00 850.53
  Q 195.35 850.47 219.40 857.10
  C 226.48 859.04 232.42 860.97 239.34 860.87
  Q 248.30 860.74 256.95 858.22
  A 0.22 0.21 -37.8 0 0 257.00 857.83
  Q 216.15 833.06 204.08 787.58
  C 201.49 777.82 201.52 769.68 205.25 760.78
  A 0.94 0.94 0.0 0 1 206.53 760.30
  Q 215.64 764.72 225.03 769.23
  Q 225.50 769.45 225.69 769.28
  A 0.81 0.81 0.0 0 0 225.71 768.06
  C 213.29 756.72 202.00 739.56 203.30 721.89
  A 1.59 1.59 0.0 0 1 206.28 721.24
  L 208.65 725.55
  Q 208.94 726.07 209.51 725.93
  C 217.81 723.79 225.87 715.16 230.57 708.29
  C 240.10 694.37 246.16 681.18 253.35 664.30
  Q 271.99 620.54 287.54 575.43
  A 0.34 0.34 0.0 0 0 287.03 575.03
  L 232.27 610.95
  A 0.43 0.43 0.0 0 1 231.62 610.46
  C 236.98 593.55 250.33 578.89 264.50 566.99
  Q 285.45 549.39 298.26 539.78
  Q 298.65 539.48 298.89 539.06
  Q 299.08 538.70 299.32 538.39
  Q 299.65 537.97 299.79 537.61
  Q 336.12 439.59 369.43 340.29
  A 0.48 0.48 0.0 0 0 368.60 339.83
  C 366.27 342.70 361.51 341.08 363.11 336.81
  Q 364.09 334.19 365.54 332.04
  C 367.95 328.47 372.52 325.28 373.95 321.21
  Q 385.04 289.74 404.52 263.50
  C 464.78 182.37 546.79 127.09 644.67 101.38
  Q 756.04 72.14 871.17 77.92
  Q 871.86 77.96 872.11 78.59
  Q 879.90 98.23 878.64 119.51
  Q 876.97 147.63 871.57 175.23
  Q 869.94 183.58 866.91 194.68
  Q 860.35 218.75 853.57 242.75
  Q 842.76 280.98 836.73 320.24
  Q 835.52 328.12 832.18 339.98
  C 830.79 344.90 837.62 359.60 840.03 364.32
  A 0.55 0.55 0.0 0 0 840.88 364.49
  C 852.04 355.05 863.55 346.78 876.79 339.66
  Q 918.61 317.20 966.45 299.44
  Q 1130.33 238.63 1301.32 218.12
  C 1317.25 216.21 1333.42 215.61 1349.50 214.88
  Q 1359.13 214.44 1367.25 215.11
  C 1370.08 215.34 1370.64 217.57 1370.27 220.11
  Q 1362.53 272.79 1340.57 322.32
  Q 1325.43 356.45 1308.07 387.33
  C 1286.35 425.96 1264.11 463.85 1239.46 500.71
  C 1206.58 549.87 1167.74 594.61 1125.29 635.59
  A 0.58 0.58 0.0 0 0 1125.31 636.44
  L 1188.98 692.79
  A 1.24 1.24 0.0 0 1 1189.11 694.51
  Q 1186.20 697.98 1181.39 698.26
  Q 1141.59 700.61 1105.59 684.55
  Z
  M 424.16 255.09
  Q 403.04 281.94 386.48 311.85
  A 0.88 0.88 0.0 0 0 387.76 313.00
  Q 402.09 302.98 418.82 296.68
  Q 474.72 275.63 534.43 274.50
  C 540.24 274.39 545.28 273.82 550.68 273.02
  A 0.35 0.34 47.0 0 0 550.70 272.34
  Q 526.62 266.84 502.92 265.49
  C 500.29 265.34 499.56 262.46 501.13 260.96
  C 502.61 259.55 505.77 260.35 507.24 258.95
  Q 515.05 251.51 525.25 250.42
  Q 554.04 247.34 584.74 250.80
  Q 652.00 258.38 712.95 287.57
  Q 742.21 301.58 767.22 315.67
  C 778.47 322.00 789.28 329.53 800.01 336.96
  A 0.42 0.42 0.0 0 0 800.66 336.54
  Q 795.31 309.32 794.62 281.50
  C 794.14 262.39 794.89 246.38 800.89 228.70
  Q 801.59 226.62 803.25 227.27
  A 1.31 1.30 -85.0 0 1 804.05 228.23
  L 806.03 238.20
  Q 802.38 243.32 802.23 245.74
  Q 799.43 291.38 808.13 336.23
  Q 809.45 343.03 814.94 347.81
  Q 824.13 355.80 830.22 360.83
  A 0.34 0.34 0.0 0 0 830.76 360.45
  C 820.57 332.66 813.87 311.64 808.28 285.74
  Q 802.85 260.54 809.67 236.03
  Q 811.63 231.62 813.68 226.99
  Q 814.49 225.17 815.98 225.99
  A 1.60 1.59 -71.1 0 1 816.78 227.63
  C 811.55 261.32 815.88 295.88 827.12 327.97
  A 0.33 0.33 0.0 0 0 827.76 327.87
  Q 828.68 295.70 836.14 265.03
  C 842.55 238.71 850.51 212.86 857.76 186.77
  Q 861.64 172.81 867.22 138.50
  Q 868.38 131.39 868.73 115.25
  L 868.87 88.47
  A 1.68 1.68 0.0 0 0 867.20 86.78
  C 829.16 86.58 791.50 88.68 753.80 92.40
  C 699.39 97.78 645.80 109.12 594.76 128.99
  C 527.73 155.08 469.43 200.31 424.16 255.09
  Z
  M 679.99 285.06
  Q 624.73 262.77 565.47 258.14
  C 549.07 256.86 534.95 256.47 519.55 258.58
  A 0.41 0.41 0.0 0 0 519.58 259.40
  C 604.85 264.74 685.28 287.82 761.26 326.88
  Q 761.58 327.04 761.67 326.70
  Q 761.74 326.41 761.63 326.34
  Q 722.57 302.23 679.99 285.06
  Z
  M 1119.98 631.95
  Q 1125.62 626.68 1130.34 620.60
  Q 1156.64 586.65 1179.74 550.47
  C 1192.87 529.91 1204.74 508.61 1218.55 488.47
  C 1239.87 457.38 1264.55 421.25 1279.27 384.76
  Q 1294.74 346.39 1309.17 295.00
  Q 1310.08 291.77 1312.00 281.35
  L 1313.69 266.21
  A 0.54 0.54 0.0 0 0 1312.84 265.71
  C 1309.46 268.17 1306.29 270.51 1302.33 272.15
  C 1271.62 284.87 1242.17 299.44 1212.59 314.53
  Q 1144.39 349.31 1086.80 399.69
  C 1055.81 426.79 1024.09 455.13 1002.68 489.99
  A 2.39 2.38 -46.4 0 0 1002.74 492.57
  Q 1019.53 517.29 1037.23 541.53
  C 1061.30 574.50 1089.02 604.65 1119.98 631.95
  Z
  M 395.51 662.44
  L 395.49 648.96
  A 0.57 0.57 0.0 0 0 394.92 648.39
  L 391.65 648.40
  A 7.22 6.15 -0.1 0 0 384.44 654.56
  L 384.44 656.88
  A 7.22 6.15 -0.1 0 0 391.67 663.02
  L 394.94 663.01
  A 0.57 0.57 0.0 0 0 395.51 662.44
  Z
  M 348.49 665.82
  Q 353.11 688.37 370.99 700.59
  C 378.43 705.67 385.68 706.63 392.17 699.87
  A 1.44 1.38 -21.6 0 0 392.57 699.00
  L 395.29 667.30
  Q 395.35 666.67 394.80 666.38
  L 393.94 665.90
  A 1.26 1.25 22.8 0 0 392.14 666.63
  Q 390.89 670.66 387.91 674.16
  C 380.75 682.56 370.90 676.51 368.21 668.00
  Q 367.39 665.40 367.05 663.15
  L 366.40 652.17
  A 0.85 0.84 -3.7 0 0 365.49 651.38
  L 346.49 652.76
  Q 345.83 652.81 345.77 653.47
  Q 345.11 660.28 348.49 665.82
  Z
  M 185.87 870.11
  C 218.97 887.94 254.42 904.51 292.04 908.26
  A 0.34 0.34 0.0 0 0 292.23 907.62
  C 268.25 895.05 240.73 882.55 218.79 869.46
  Q 201.05 858.88 181.06 862.30
  Q 179.48 862.57 179.41 864.01
  C 179.29 866.57 183.59 868.88 185.87 870.11
  Z"
/>
<path fill="#472a1c" d="
  M 868.73 115.25
  C 829.07 116.40 789.25 119.79 750.40 125.20
  Q 740.59 126.56 730.65 128.37
  Q 699.75 134.00 669.21 141.32
  Q 659.92 143.55 649.92 146.61
  Q 618.58 156.19 599.19 162.87
  Q 557.31 177.28 515.10 200.12
  Q 510.72 202.49 499.90 209.53
  Q 493.68 213.58 484.68 218.89
  Q 462.77 231.79 442.79 247.62
  Q 437.82 251.56 424.70 257.81
  Q 424.15 258.07 424.15 257.46
  L 424.16 255.09
  C 469.43 200.31 527.73 155.08 594.76 128.99
  C 645.80 109.12 699.39 97.78 753.80 92.40
  C 791.50 88.68 829.16 86.58 867.20 86.78
  A 1.68 1.68 0.0 0 1 868.87 88.47
  L 868.73 115.25
  Z"
/>
<path fill="#3a2216" d="
  M 868.73 115.25
  Q 868.38 131.39 867.22 138.50
  Q 861.64 172.81 857.76 186.77
  C 850.51 212.86 842.55 238.71 836.14 265.03
  Q 828.68 295.70 827.76 327.87
  A 0.33 0.33 0.0 0 1 827.12 327.97
  C 815.88 295.88 811.55 261.32 816.78 227.63
  A 1.60 1.59 -71.1 0 0 815.98 225.99
  Q 814.49 225.17 813.68 226.99
  Q 811.63 231.62 809.67 236.03
  Q 807.70 235.66 806.03 238.20
  L 804.05 228.23
  A 1.31 1.30 -85.0 0 0 803.25 227.27
  Q 801.59 226.62 800.89 228.70
  C 794.89 246.38 794.14 262.39 794.62 281.50
  Q 795.31 309.32 800.66 336.54
  A 0.42 0.42 0.0 0 1 800.01 336.96
  C 789.28 329.53 778.47 322.00 767.22 315.67
  Q 742.21 301.58 712.95 287.57
  Q 652.00 258.38 584.74 250.80
  Q 554.04 247.34 525.25 250.42
  Q 515.05 251.51 507.24 258.95
  C 505.77 260.35 502.61 259.55 501.13 260.96
  C 499.56 262.46 500.29 265.34 502.92 265.49
  Q 526.62 266.84 550.70 272.34
  A 0.35 0.34 47.0 0 1 550.68 273.02
  C 545.28 273.82 540.24 274.39 534.43 274.50
  Q 474.72 275.63 418.82 296.68
  Q 402.09 302.98 387.76 313.00
  A 0.88 0.88 0.0 0 1 386.48 311.85
  Q 403.04 281.94 424.16 255.09
  L 424.15 257.46
  Q 424.15 258.07 424.70 257.81
  Q 437.82 251.56 442.79 247.62
  Q 462.77 231.79 484.68 218.89
  Q 493.68 213.58 499.90 209.53
  Q 510.72 202.49 515.10 200.12
  Q 557.31 177.28 599.19 162.87
  Q 618.58 156.19 649.92 146.61
  Q 659.92 143.55 669.21 141.32
  Q 699.75 134.00 730.65 128.37
  Q 740.59 126.56 750.40 125.20
  C 789.25 119.79 829.07 116.40 868.73 115.25
  Z"
/>
<path fill="#472a1c" d="
  M 959.47 434.74
  Q 945.66 420.80 931.92 407.33
  Q 898.18 374.28 851.49 366.67
  C 885.21 343.38 918.24 329.01 957.48 314.25
  Q 1035.37 284.94 1104.74 267.00
  Q 1153.25 254.45 1219.69 241.34
  C 1265.44 232.32 1311.79 227.14 1357.59 218.56
  A 1.70 1.70 0.0 0 1 1359.57 220.57
  Q 1347.28 280.16 1319.72 334.44
  Q 1305.36 362.71 1289.89 390.54
  A 0.58 0.58 0.0 0 1 1288.99 390.68
  Q 1288.95 390.64 1289.15 390.12
  Q 1307.05 343.44 1318.80 297.00
  C 1321.43 286.57 1323.21 272.04 1317.41 262.32
  A 1.56 1.56 0.0 0 0 1314.90 262.08
  C 1312.91 264.31 1310.22 264.39 1307.60 265.43
  Q 1305.09 266.42 1303.34 266.84
  Q 1279.30 272.62 1258.80 281.34
  C 1189.36 310.88 1123.19 351.57 1066.55 401.79
  C 1038.73 426.45 1016.79 452.38 999.23 483.47
  Q 998.77 484.29 998.30 484.66
  A 1.48 1.47 54.3 0 1 996.17 484.31
  Q 981.74 462.67 970.01 440.24
  Q 967.51 435.44 968.36 429.18
  Q 968.44 428.57 967.84 428.50
  C 964.30 428.07 963.39 430.30 961.99 432.97
  A 0.89 0.89 0.0 0 1 961.20 433.45
  Q 959.80 433.47 959.47 434.74
  Z"
/>
<path fill="#da5a1b" d="
  M 809.67 236.03
  Q 802.85 260.54 808.28 285.74
  C 813.87 311.64 820.57 332.66 830.76 360.45
  A 0.34 0.34 0.0 0 1 830.22 360.83
  Q 824.13 355.80 814.94 347.81
  Q 809.45 343.03 808.13 336.23
  Q 799.43 291.38 802.23 245.74
  Q 802.38 243.32 806.03 238.20
  Q 807.70 235.66 809.67 236.03
  Z"
/>
<path fill="#f16f31" d="
  M 679.99 285.06
  Q 722.57 302.23 761.63 326.34
  Q 761.74 326.41 761.67 326.70
  Q 761.58 327.04 761.26 326.88
  C 685.28 287.82 604.85 264.74 519.58 259.40
  A 0.41 0.41 0.0 0 1 519.55 258.58
  C 534.95 256.47 549.07 256.86 565.47 258.14
  Q 624.73 262.77 679.99 285.06
  Z"
/>
<path fill="#d3d3d3" d="
  M 1312.00 281.35
  C 1299.31 289.20 1285.98 296.54 1273.88 304.43
  Q 1217.94 340.87 1202.28 352.25
  Q 1151.14 389.42 1102.22 429.47
  Q 1081.92 446.09 1062.80 463.53
  A 1.32 1.31 42.3 0 0 1062.90 465.56
  Q 1076.28 475.49 1086.27 489.44
  Q 1131.80 553.05 1119.98 631.95
  C 1089.02 604.65 1061.30 574.50 1037.23 541.53
  Q 1019.53 517.29 1002.74 492.57
  A 2.39 2.38 -46.4 0 1 1002.68 489.99
  C 1024.09 455.13 1055.81 426.79 1086.80 399.69
  Q 1144.39 349.31 1212.59 314.53
  C 1242.17 299.44 1271.62 284.87 1302.33 272.15
  C 1306.29 270.51 1309.46 268.17 1312.84 265.71
  A 0.54 0.54 0.0 0 1 1313.69 266.21
  L 1312.00 281.35
  Z"
/>
<path fill="#ffffff" d="
  M 1312.00 281.35
  Q 1310.08 291.77 1309.17 295.00
  Q 1294.74 346.39 1279.27 384.76
  C 1264.55 421.25 1239.87 457.38 1218.55 488.47
  C 1204.74 508.61 1192.87 529.91 1179.74 550.47
  Q 1156.64 586.65 1130.34 620.60
  Q 1125.62 626.68 1119.98 631.95
  Q 1131.80 553.05 1086.27 489.44
  Q 1076.28 475.49 1062.90 465.56
  A 1.32 1.31 42.3 0 1 1062.80 463.53
  Q 1081.92 446.09 1102.22 429.47
  Q 1151.14 389.42 1202.28 352.25
  Q 1217.94 340.87 1273.88 304.43
  C 1285.98 296.54 1299.31 289.20 1312.00 281.35
  Z"
/>
<path fill="#f16f31" d="
  M 851.49 366.67
  Q 898.18 374.28 931.92 407.33
  Q 945.66 420.80 959.47 434.74
  Q 961.92 439.96 964.13 445.55
  C 968.63 456.95 974.21 465.87 981.20 477.57
  Q 1005.40 518.07 1029.66 550.55
  Q 1069.01 603.23 1120.06 644.69
  Q 1142.55 662.95 1165.79 680.23
  Q 1173.75 686.15 1182.07 690.84
  A 0.51 0.51 0.0 0 1 1181.80 691.79
  Q 1138.86 689.42 1099.87 672.85
  C 1097.77 671.96 1095.09 671.73 1093.22 672.67
  A 1.50 1.50 0.0 0 0 1093.00 675.21
  L 1105.59 684.55
  Q 1105.57 684.63 1105.55 684.71
  C 1104.21 684.05 1101.79 683.24 1100.59 684.48
  C 1099.28 685.83 1099.77 686.91 1100.97 688.19
  Q 1134.47 724.14 1183.29 731.96
  Q 1183.67 732.03 1183.96 732.22
  Q 1184.34 732.49 1184.52 732.70
  A 0.90 0.89 45.8 0 1 1184.51 733.88
  Q 1178.60 740.50 1172.74 747.08
  C 1170.77 749.30 1169.29 749.37 1166.50 749.22
  Q 1107.22 746.07 1044.74 748.04
  C 1032.34 748.43 1022.22 749.46 1011.01 751.86
  Q 1009.92 752.09 1009.97 753.26
  A 0.89 0.88 1.5 0 0 1010.78 754.10
  L 1030.07 755.71
  Q 1032.49 757.43 1035.23 758.49
  Q 1037.28 759.27 1040.93 759.40
  C 1047.36 759.63 1054.68 761.49 1059.69 762.16
  Q 1100.97 767.65 1142.70 775.18
  Q 1110.41 798.69 1074.90 814.06
  Q 1074.50 814.23 1074.03 814.24
  C 1073.31 814.27 1072.51 814.39 1071.83 814.13
  C 1043.21 803.15 1013.84 795.21 983.00 794.47
  Q 977.17 794.33 972.60 794.66
  A 0.30 0.29 -36.3 0 0 972.51 795.23
  L 984.83 800.04
  Q 997.03 809.24 1011.20 814.45
  Q 1019.72 817.58 1022.61 819.11
  Q 1030.87 823.47 1038.43 829.56
  Q 1006.58 839.78 989.51 844.76
  Q 955.77 854.61 926.30 868.60
  Q 925.82 868.83 925.60 869.09
  A 0.58 0.57 -66.3 0 0 925.96 870.03
  Q 943.84 872.26 961.75 875.51
  Q 990.29 880.70 1016.84 897.94
  C 1041.34 913.83 1062.79 932.27 1085.27 952.05
  Q 1085.69 952.42 1085.14 952.31
  Q 1082.04 951.74 1078.94 951.01
  C 1017.51 936.51 954.34 960.32 906.84 1000.10
  Q 873.33 1028.16 858.38 1040.79
  C 839.07 1057.09 817.82 1069.95 794.55 1079.78
  L 793.71 1077.58
  Q 793.51 1077.05 793.88 1076.62
  Q 826.54 1039.06 841.61 992.08
  L 847.97 1028.12
  Q 848.00 1028.32 848.19 1028.42
  Q 848.36 1028.50 848.56 1028.50
  A 0.39 0.39 0.0 0 0 848.93 1028.20
  Q 853.53 1010.41 851.20 992.43
  Q 851.15 992.02 849.64 982.07
  Q 848.83 976.74 847.91 971.74
  L 850.77 948.03
  L 861.36 959.35
  Q 861.78 959.80 861.92 959.20
  Q 863.11 953.92 861.58 949.99
  Q 857.62 939.83 849.61 929.85
  L 846.96 914.88
  L 864.30 932.45
  A 0.58 0.58 0.0 0 0 865.27 931.88
  C 853.66 892.21 807.48 867.67 770.00 858.47
  C 768.47 858.09 766.89 858.37 766.59 860.06
  C 766.31 861.62 768.05 863.83 768.95 865.16
  Q 740.01 864.76 711.00 865.81
  C 678.38 867.00 646.29 865.24 613.50 860.42
  C 580.64 855.58 552.34 843.07 531.32 816.94
  C 522.17 805.57 517.28 794.37 512.51 779.20
  Q 507.84 764.35 503.25 749.50
  C 502.00 745.43 498.33 740.57 495.08 737.15
  Q 470.34 711.13 432.88 715.14
  A 2.39 2.38 -89.4 0 0 430.77 717.21
  Q 429.21 728.88 424.59 740.79
  L 421.77 731.69
  A 0.59 0.58 -30.7 0 0 420.80 731.45
  Q 420.71 731.54 420.55 731.79
  Q 420.44 731.96 420.40 732.18
  Q 418.27 745.57 413.79 754.03
  Q 403.27 773.86 384.76 794.21
  C 358.85 805.44 331.06 804.93 304.38 796.43
  Q 257.78 781.59 220.50 748.15
  L 211.81 732.62
  A 0.53 0.53 0.0 0 1 212.08 731.87
  C 240.27 721.11 258.08 685.50 267.49 658.23
  A 0.95 0.95 0.0 0 1 269.11 657.93
  C 270.17 659.19 271.06 659.72 272.80 659.65
  Q 282.28 659.30 291.75 659.02
  C 293.42 658.97 294.27 660.78 294.24 662.36
  Q 293.36 703.40 308.87 740.86
  Q 309.58 742.58 311.40 742.85
  Q 311.86 743.95 311.39 743.71
  C 325.86 764.23 351.40 771.20 375.27 766.49
  Q 374.95 767.32 375.40 768.16
  Q 376.37 770.00 378.15 768.92
  Q 390.51 761.41 395.27 747.51
  C 400.02 733.63 401.66 717.53 404.12 702.37
  C 407.17 683.61 407.29 666.08 404.82 647.57
  Q 404.70 646.65 405.58 646.36
  L 414.25 643.40
  Q 414.79 643.22 415.00 642.69
  C 421.81 625.38 424.41 606.80 426.28 588.14
  C 427.57 575.16 430.48 554.06 422.95 545.21
  Q 422.62 544.81 422.11 544.71
  C 418.34 543.98 416.86 546.61 416.76 550.04
  C 416.63 554.63 416.78 559.08 416.03 563.62
  Q 411.68 589.87 408.25 616.26
  C 406.67 628.36 382.61 633.10 372.49 634.87
  Q 334.60 641.47 296.61 647.47
  C 289.17 648.65 279.82 651.15 271.22 652.21
  A 0.55 0.55 0.0 0 1 270.64 651.47
  L 297.48 580.68
  Q 319.82 567.34 341.72 553.68
  C 365.38 538.92 390.84 528.09 413.56 511.74
  C 422.83 508.34 425.79 498.63 427.17 489.74
  Q 431.63 461.04 415.88 437.70
  A 2.40 2.40 0.0 0 0 412.93 436.85
  C 411.39 437.53 410.76 438.89 411.26 440.58
  C 414.62 451.94 418.23 462.83 419.10 474.95
  A 1.76 1.75 -11.3 0 1 417.90 476.74
  Q 364.48 494.59 317.43 526.88
  Q 316.61 527.45 316.64 526.11
  A 0.84 0.68 61.0 0 1 316.69 525.83
  C 338.83 463.90 361.66 398.14 377.99 332.13
  Q 378.44 330.31 380.58 328.79
  Q 409.27 308.29 444.51 298.21
  C 526.73 274.68 615.72 285.52 695.37 314.07
  C 727.41 325.55 758.60 340.78 790.88 357.91
  Q 824.56 375.78 849.40 390.12
  Q 852.66 392.00 856.88 395.61
  Q 857.08 395.77 857.23 395.57
  Q 857.32 395.45 857.33 395.30
  Q 857.33 395.27 857.31 395.24
  Q 848.45 385.63 844.17 373.27
  A 0.78 0.78 0.0 0 1 844.41 372.40
  L 851.49 366.67
  Z
  M 433.81 505.03
  C 436.60 502.43 439.25 498.36 440.20 494.49
  Q 449.47 456.67 435.09 420.71
  C 433.16 415.89 425.32 400.36 419.16 400.85
  A 2.11 2.10 74.5 0 0 417.45 403.88
  Q 421.45 411.99 424.97 420.78
  C 434.77 445.21 435.15 470.95 430.23 496.84
  C 429.71 499.58 429.64 502.21 430.74 504.47
  A 1.94 1.94 0.0 0 0 433.81 505.03
  Z
  M 533.60 490.73
  C 536.33 480.17 541.11 470.58 544.43 460.23
  Q 544.65 459.55 544.53 459.32
  A 1.16 1.16 0.0 0 0 542.97 458.85
  C 533.83 463.66 530.87 470.32 527.20 480.63
  Q 515.91 512.31 523.64 545.72
  Q 524.64 550.04 528.23 550.28
  A 2.45 2.45 0.0 0 0 530.83 547.53
  C 528.51 528.95 528.89 508.90 533.60 490.73
  Z
  M 563.79 545.39
  C 565.56 546.07 567.03 546.73 568.93 547.08
  Q 603.25 553.53 636.25 565.01
  Q 721.60 594.71 803.44 633.00
  C 822.13 641.74 842.52 653.37 858.44 660.31
  Q 861.88 661.81 867.66 660.59
  L 878.26 668.59
  A 0.41 0.41 0.0 0 0 878.88 668.08
  C 874.73 659.30 869.66 653.14 862.05 645.77
  C 852.18 636.20 842.06 625.81 830.92 618.07
  Q 815.71 607.51 797.32 596.17
  Q 747.85 565.66 696.23 538.95
  C 653.83 517.01 611.44 499.26 566.29 488.87
  A 0.48 0.48 0.0 0 1 565.96 488.19
  L 576.25 467.49
  A 0.23 0.22 -7.0 0 0 575.90 467.22
  Q 549.23 489.19 548.56 523.29
  C 548.35 534.25 551.09 542.95 561.95 546.30
  Q 562.99 546.62 563.79 545.39
  Z
  M 538.93 800.32
  Q 557.79 825.42 587.88 834.67
  Q 615.18 843.06 645.33 843.26
  C 666.79 843.40 689.51 843.74 715.25 843.78
  Q 716.55 843.78 716.26 842.87
  Q 717.32 844.97 718.75 844.46
  Q 729.88 840.49 737.21 830.74
  Q 747.24 826.13 754.15 818.40
  Q 780.41 789.01 805.47 755.22
  Q 809.25 750.13 812.66 742.26
  Q 817.23 744.18 819.50 743.78
  Q 832.94 741.45 846.26 740.12
  A 0.77 0.77 0.0 0 0 846.70 738.79
  C 836.32 729.34 822.14 723.76 809.33 718.15
  C 761.53 697.20 710.47 679.34 662.49 663.58
  Q 622.91 650.58 580.70 645.51
  C 564.26 643.53 547.78 644.00 531.46 645.51
  A 0.75 0.74 6.6 0 1 530.68 644.53
  C 537.87 623.29 546.10 602.39 553.81 581.34
  Q 556.92 572.86 561.49 565.02
  A 0.85 0.85 0.0 0 0 560.70 563.75
  Q 557.47 563.98 557.95 560.82
  A 0.43 0.43 0.0 0 0 557.22 560.45
  C 545.82 571.88 538.23 584.48 530.98 599.42
  Q 518.13 625.92 513.77 655.25
  C 512.69 662.57 516.28 663.51 522.57 663.27
  A 1.17 1.17 0.0 0 1 523.76 664.71
  Q 512.14 715.01 522.68 765.04
  C 524.92 775.68 528.40 786.35 534.92 794.68
  Q 537.04 797.40 538.93 800.32
  Z"
/>
<path fill="#010101" d="
  M 440.20 494.49
  C 439.25 498.36 436.60 502.43 433.81 505.03
  A 1.94 1.94 0.0 0 1 430.74 504.47
  C 429.64 502.21 429.71 499.58 430.23 496.84
  C 435.15 470.95 434.77 445.21 424.97 420.78
  Q 421.45 411.99 417.45 403.88
  A 2.11 2.10 74.5 0 1 419.16 400.85
  C 425.32 400.36 433.16 415.89 435.09 420.71
  Q 449.47 456.67 440.20 494.49
  Z"
/>
<path fill="#010101" d="
  M 544.43 460.23
  C 541.11 470.58 536.33 480.17 533.60 490.73
  C 528.89 508.90 528.51 528.95 530.83 547.53
  A 2.45 2.45 0.0 0 1 528.23 550.28
  Q 524.64 550.04 523.64 545.72
  Q 515.91 512.31 527.20 480.63
  C 530.87 470.32 533.83 463.66 542.97 458.85
  A 1.16 1.16 0.0 0 1 544.53 459.32
  Q 544.65 459.55 544.43 460.23
  Z"
/>
<path fill="#010101" d="
  M 867.66 660.59
  C 784.73 598.74 689.67 560.66 587.98 542.67
  C 579.32 541.14 571.08 538.48 563.79 545.39
  Q 562.99 546.62 561.95 546.30
  C 551.09 542.95 548.35 534.25 548.56 523.29
  Q 549.23 489.19 575.90 467.22
  A 0.23 0.22 -7.0 0 1 576.25 467.49
  L 565.96 488.19
  A 0.48 0.48 0.0 0 0 566.29 488.87
  C 611.44 499.26 653.83 517.01 696.23 538.95
  Q 747.85 565.66 797.32 596.17
  Q 815.71 607.51 830.92 618.07
  C 842.06 625.81 852.18 636.20 862.05 645.77
  C 869.66 653.14 874.73 659.30 878.88 668.08
  A 0.41 0.41 0.0 0 1 878.26 668.59
  L 867.66 660.59
  Z"
/>
<path fill="#da5a1b" d="
  M 413.56 511.74
  C 390.84 528.09 365.38 538.92 341.72 553.68
  Q 319.82 567.34 297.48 580.68
  C 299.03 573.53 300.82 566.49 307.51 562.84
  Q 354.16 537.36 402.41 515.08
  C 405.51 513.65 408.01 511.46 410.87 509.46
  Q 412.76 508.14 413.55 510.31
  Q 413.62 510.48 413.56 511.74
  Z"
/>
<path fill="#da5a1b" d="
  M 867.66 660.59
  Q 861.88 661.81 858.44 660.31
  C 842.52 653.37 822.13 641.74 803.44 633.00
  Q 721.60 594.71 636.25 565.01
  Q 603.25 553.53 568.93 547.08
  C 567.03 546.73 565.56 546.07 563.79 545.39
  C 571.08 538.48 579.32 541.14 587.98 542.67
  C 689.67 560.66 784.73 598.74 867.66 660.59
  Z"
/>
<path fill="#010101" d="
  M 812.66 742.26
  L 799.89 735.53
  A 0.90 0.89 -61.4 0 0 798.68 735.89
  C 789.72 752.30 780.64 769.02 769.69 784.36
  Q 753.28 807.34 737.21 830.74
  Q 729.88 840.49 718.75 844.46
  Q 717.32 844.97 716.26 842.87
  L 725.42 825.47
  C 745.13 794.28 762.14 764.24 772.00 729.28
  Q 772.14 728.78 771.79 728.39
  Q 771.20 727.72 770.26 726.98
  Q 755.51 715.45 739.79 707.70
  Q 704.89 690.51 666.65 679.08
  Q 665.76 678.82 665.52 679.72
  L 661.92 693.59
  Q 648.39 721.70 619.73 731.54
  Q 604.15 736.89 591.00 735.20
  C 563.00 731.60 547.62 706.01 548.45 679.25
  C 548.64 673.06 548.75 666.86 549.09 660.68
  A 0.62 0.62 0.0 0 0 548.46 660.03
  L 533.52 660.33
  A 1.21 1.21 0.0 0 0 532.36 661.29
  Q 524.24 700.57 529.68 740.13
  Q 529.72 740.41 532.05 758.08
  Q 534.74 778.48 541.89 797.87
  Q 542.47 799.46 541.54 799.85
  Q 540.70 800.21 538.93 800.32
  Q 537.04 797.40 534.92 794.68
  C 528.40 786.35 524.92 775.68 522.68 765.04
  Q 512.14 715.01 523.76 664.71
  A 1.17 1.17 0.0 0 0 522.57 663.27
  C 516.28 663.51 512.69 662.57 513.77 655.25
  Q 518.13 625.92 530.98 599.42
  C 538.23 584.48 545.82 571.88 557.22 560.45
  A 0.43 0.43 0.0 0 1 557.95 560.82
  Q 557.47 563.98 560.70 563.75
  A 0.85 0.85 0.0 0 1 561.49 565.02
  Q 556.92 572.86 553.81 581.34
  C 546.10 602.39 537.87 623.29 530.68 644.53
  A 0.75 0.74 6.6 0 0 531.46 645.51
  C 547.78 644.00 564.26 643.53 580.70 645.51
  Q 622.91 650.58 662.49 663.58
  C 710.47 679.34 761.53 697.20 809.33 718.15
  C 822.14 723.76 836.32 729.34 846.70 738.79
  A 0.77 0.77 0.0 0 1 846.26 740.12
  Q 832.94 741.45 819.50 743.78
  Q 817.23 744.18 812.66 742.26
  Z
  M 557.09 669.79
  Q 555.64 692.10 568.04 709.62
  Q 572.04 715.28 576.73 718.13
  C 590.66 726.57 610.99 722.53 624.83 715.94
  Q 642.79 707.38 653.61 689.07
  L 659.35 678.34
  A 0.93 0.93 0.0 0 0 658.74 677.00
  L 644.72 673.75
  A 0.83 0.82 -63.4 0 0 643.89 674.03
  L 635.04 684.56
  Q 615.28 695.79 601.26 679.21
  Q 600.85 678.74 600.45 679.22
  C 596.01 684.52 591.82 689.77 585.03 690.45
  C 573.67 691.57 567.45 678.69 565.77 669.64
  L 565.69 661.38
  Q 565.68 660.68 564.99 660.70
  L 558.50 660.87
  A 0.69 0.67 -87.6 0 0 557.84 661.49
  L 557.09 669.79
  Z
  M 602.99 676.57
  C 612.64 692.02 632.34 686.42 640.38 673.24
  A 0.57 0.57 0.0 0 0 640.01 672.38
  L 606.49 664.95
  A 0.82 0.82 0.0 0 0 605.52 665.54
  L 602.85 675.63
  Q 602.72 676.13 602.99 676.57
  Z"
/>
<path fill="#ffffff" d="
  M 395.51 662.44
  A 0.57 0.57 0.0 0 1 394.94 663.01
  L 391.67 663.02
  A 7.22 6.15 -0.1 0 1 384.44 656.88
  L 384.44 654.56
  A 7.22 6.15 -0.1 0 1 391.65 648.40
  L 394.92 648.39
  A 0.57 0.57 0.0 0 1 395.49 648.96
  L 395.51 662.44
  Z"
/>
<path fill="#015e26" d="
  M 367.05 663.15
  L 348.49 665.82
  Q 345.11 660.28 345.77 653.47
  Q 345.83 652.81 346.49 652.76
  L 365.49 651.38
  A 0.85 0.84 -3.7 0 1 366.40 652.17
  L 367.05 663.15
  Z"
/>
<path fill="#bff5fe" d="
  M 340.41 667.93
  Q 327.69 669.40 314.99 670.83
  C 313.25 671.02 311.35 671.97 311.19 673.74
  Q 310.47 682.22 310.90 692.93
  Q 311.16 699.51 312.99 711.99
  Q 314.87 724.87 315.87 737.90
  A 1.25 1.24 -27.8 0 1 315.59 738.79
  L 311.39 743.71
  Q 311.86 743.95 311.40 742.85
  Q 311.67 730.22 310.48 725.50
  Q 301.87 691.33 300.02 661.76
  C 299.78 658.05 302.87 656.40 306.32 656.02
  Q 323.29 654.13 340.34 653.37
  Q 340.91 653.35 340.89 653.92
  L 340.41 667.93
  Z"
/>
<path fill="#ffffff" d="
  M 661.92 693.59
  Q 707.43 708.09 748.95 731.61
  C 751.31 732.95 753.36 733.98 752.60 736.78
  Q 742.87 772.34 727.01 812.50
  Q 724.49 818.90 725.42 825.47
  L 716.26 842.87
  Q 716.55 843.78 715.25 843.78
  C 689.51 843.74 666.79 843.40 645.33 843.26
  Q 615.18 843.06 587.88 834.67
  Q 557.79 825.42 538.93 800.32
  Q 540.70 800.21 541.54 799.85
  Q 542.47 799.46 541.89 797.87
  Q 534.74 778.48 532.05 758.08
  Q 529.72 740.41 529.68 740.13
  Q 524.24 700.57 532.36 661.29
  A 1.21 1.21 0.0 0 1 533.52 660.33
  L 548.46 660.03
  A 0.62 0.62 0.0 0 1 549.09 660.68
  C 548.75 666.86 548.64 673.06 548.45 679.25
  C 547.62 706.01 563.00 731.60 591.00 735.20
  Q 604.15 736.89 619.73 731.54
  Q 648.39 721.70 661.92 693.59
  Z"
/>
<path fill="#015e26" d="
  M 565.77 669.64
  L 557.09 669.79
  L 557.84 661.49
  A 0.69 0.67 -87.6 0 1 558.50 660.87
  L 564.99 660.70
  Q 565.68 660.68 565.69 661.38
  L 565.77 669.64
  Z"
/>
<path fill="#02be4f" d="
  M 367.05 663.15
  Q 367.39 665.40 368.21 668.00
  C 370.90 676.51 380.75 682.56 387.91 674.16
  Q 390.89 670.66 392.14 666.63
  A 1.26 1.25 22.8 0 1 393.94 665.90
  L 394.80 666.38
  Q 395.35 666.67 395.29 667.30
  L 392.57 699.00
  A 1.44 1.38 -21.6 0 1 392.17 699.87
  C 385.68 706.63 378.43 705.67 370.99 700.59
  Q 353.11 688.37 348.49 665.82
  L 367.05 663.15
  Z"
/>
<path fill="#ffffff" d="
  M 640.38 673.24
  C 632.34 686.42 612.64 692.02 602.99 676.57
  Q 602.72 676.13 602.85 675.63
  L 605.52 665.54
  A 0.82 0.82 0.0 0 1 606.49 664.95
  L 640.01 672.38
  A 0.57 0.57 0.0 0 1 640.38 673.24
  Z"
/>
<path fill="#ffffff" d="
  M 340.41 667.93
  C 343.93 691.94 360.93 719.23 388.60 715.44
  A 0.41 0.40 -0.1 0 1 389.06 715.89
  Q 386.50 738.05 379.16 758.98
  Q 377.42 763.94 375.27 766.49
  C 351.40 771.20 325.86 764.23 311.39 743.71
  L 315.59 738.79
  A 1.25 1.24 -27.8 0 0 315.87 737.90
  Q 314.87 724.87 312.99 711.99
  Q 311.16 699.51 310.90 692.93
  Q 310.47 682.22 311.19 673.74
  C 311.35 671.97 313.25 671.02 314.99 670.83
  Q 327.69 669.40 340.41 667.93
  Z"
/>
<path fill="#02be4f" d="
  M 557.09 669.79
  L 565.77 669.64
  C 567.45 678.69 573.67 691.57 585.03 690.45
  C 591.82 689.77 596.01 684.52 600.45 679.22
  Q 600.85 678.74 601.26 679.21
  Q 615.28 695.79 635.04 684.56
  L 653.61 689.07
  Q 642.79 707.38 624.83 715.94
  C 610.99 722.53 590.66 726.57 576.73 718.13
  Q 572.04 715.28 568.04 709.62
  Q 555.64 692.10 557.09 669.79
  Z"
/>
<path fill="#015e26" d="
  M 653.61 689.07
  L 635.04 684.56
  L 643.89 674.03
  A 0.83 0.82 -63.4 0 1 644.72 673.75
  L 658.74 677.00
  A 0.93 0.93 0.0 0 1 659.35 678.34
  L 653.61 689.07
  Z"
/>
<path fill="#bff5fe" d="
  M 725.42 825.47
  Q 724.49 818.90 727.01 812.50
  Q 742.87 772.34 752.60 736.78
  C 753.36 733.98 751.31 732.95 748.95 731.61
  Q 707.43 708.09 661.92 693.59
  L 665.52 679.72
  Q 665.76 678.82 666.65 679.08
  Q 704.89 690.51 739.79 707.70
  Q 755.51 715.45 770.26 726.98
  Q 771.20 727.72 771.79 728.39
  Q 772.14 728.78 772.00 729.28
  C 762.14 764.24 745.13 794.28 725.42 825.47
  Z"
/>
<path fill="#010101" d="
  M 1105.55 684.71
  C 1121.72 697.64 1138.79 710.01 1158.23 716.54
  Q 1182.35 724.66 1190.23 727.45
  Q 1190.71 727.62 1191.13 727.32
  L 1194.04 725.22
  A 1.40 1.40 0.0 0 1 1196.26 726.26
  Q 1196.56 730.81 1194.54 733.86
  C 1173.78 765.28 1147.14 790.06 1114.56 808.75
  Q 1054.29 843.30 986.27 858.71
  Q 985.80 858.82 985.73 859.30
  L 984.17 870.71
  A 0.71 0.70 -74.7 0 0 984.59 871.45
  C 1025.49 888.18 1060.05 915.11 1090.35 946.84
  C 1094.92 951.63 1100.52 956.15 1099.33 963.36
  A 0.81 0.81 0.0 0 1 1098.24 963.98
  Q 1087.45 959.80 1075.99 958.15
  C 1055.62 955.22 1034.32 955.05 1014.13 959.22
  Q 970.36 968.25 933.89 994.65
  Q 933.27 995.10 934.03 995.00
  L 936.47 994.67
  A 0.60 0.59 -78.5 0 1 937.06 995.57
  Q 915.80 1030.62 914.67 1071.26
  C 913.97 1096.53 917.96 1117.36 935.12 1136.92
  A 0.73 0.73 0.0 0 1 935.02 1137.97
  Q 923.79 1146.91 909.99 1151.47
  Q 857.01 1169.00 816.84 1131.88
  Q 813.44 1128.74 811.07 1124.91
  A 0.47 0.47 0.0 0 0 810.24 1124.98
  Q 798.94 1151.91 794.25 1180.75
  A 2.48 2.46 35.5 0 0 794.52 1182.34
  Q 807.12 1205.51 822.55 1226.45
  C 830.43 1237.15 842.54 1250.72 855.93 1252.65
  C 858.38 1253.00 860.03 1255.16 858.06 1257.16
  C 852.59 1262.70 842.76 1260.27 837.14 1256.34
  Q 829.23 1250.80 823.47 1244.03
  Q 805.17 1222.54 792.86 1197.10
  Q 792.54 1196.43 792.43 1197.17
  Q 790.09 1213.14 791.82 1228.97
  C 792.28 1233.13 787.98 1234.07 785.87 1231.02
  Q 782.46 1226.10 782.25 1220.00
  C 780.82 1177.90 792.09 1135.92 812.10 1098.98
  Q 818.50 1087.87 827.30 1078.56
  Q 828.28 1077.52 829.31 1077.77
  A 0.74 0.74 0.0 0 1 829.81 1078.79
  Q 824.07 1091.94 818.41 1105.15
  Q 816.12 1110.49 816.10 1113.11
  C 816.04 1121.62 825.09 1127.01 831.11 1131.33
  C 849.92 1144.80 870.33 1148.26 892.87 1144.14
  Q 908.74 1141.24 924.26 1136.71
  Q 924.79 1136.56 924.43 1136.15
  Q 909.53 1119.41 906.34 1097.50
  C 902.46 1070.81 905.13 1041.97 915.45 1016.72
  C 917.50 1011.70 920.24 1007.23 923.39 1002.93
  A 0.54 0.53 -2.9 0 0 922.60 1002.22
  Q 898.30 1024.06 873.94 1045.20
  Q 842.34 1072.62 799.21 1085.30
  Q 782.96 1088.87 766.13 1089.18
  Q 765.58 1089.19 765.26 1088.83
  A 0.51 0.51 0.0 0 1 765.58 1088.00
  Q 780.53 1086.04 794.55 1079.78
  C 817.82 1069.95 839.07 1057.09 858.38 1040.79
  Q 873.33 1028.16 906.84 1000.10
  C 954.34 960.32 1017.51 936.51 1078.94 951.01
  Q 1082.04 951.74 1085.14 952.31
  Q 1085.69 952.42 1085.27 952.05
  C 1062.79 932.27 1041.34 913.83 1016.84 897.94
  Q 990.29 880.70 961.75 875.51
  Q 943.84 872.26 925.96 870.03
  A 0.58 0.57 -66.3 0 1 925.60 869.09
  Q 925.82 868.83 926.30 868.60
  Q 955.77 854.61 989.51 844.76
  Q 1006.58 839.78 1038.43 829.56
  L 1058.31 821.59
  A 0.35 0.35 0.0 0 0 1058.30 820.93
  Q 1022.62 807.74 984.83 800.04
  L 972.51 795.23
  A 0.30 0.29 -36.3 0 1 972.60 794.66
  Q 977.17 794.33 983.00 794.47
  C 1013.84 795.21 1043.21 803.15 1071.83 814.13
  C 1072.51 814.39 1073.31 814.27 1074.03 814.24
  Q 1074.50 814.23 1074.90 814.06
  Q 1110.41 798.69 1142.70 775.18
  L 1160.55 759.27
  Q 1161.17 758.72 1160.34 758.70
  C 1116.88 757.99 1075.77 758.12 1030.07 755.71
  L 1010.78 754.10
  A 0.89 0.88 1.5 0 1 1009.97 753.26
  Q 1009.92 752.09 1011.01 751.86
  C 1022.22 749.46 1032.34 748.43 1044.74 748.04
  Q 1107.22 746.07 1166.50 749.22
  C 1169.29 749.37 1170.77 749.30 1172.74 747.08
  Q 1178.60 740.50 1184.51 733.88
  A 0.90 0.89 45.8 0 0 1184.52 732.70
  Q 1184.34 732.49 1183.96 732.22
  Q 1183.67 732.03 1183.29 731.96
  Q 1134.47 724.14 1100.97 688.19
  C 1099.77 686.91 1099.28 685.83 1100.59 684.48
  C 1101.79 683.24 1104.21 684.05 1105.55 684.71
  Z
  M 961.20 864.63
  Q 960.57 864.82 960.13 865.10
  A 0.33 0.33 0.0 0 0 960.24 865.71
  L 977.80 869.07
  A 0.67 0.66 6.0 0 0 978.59 868.44
  L 978.81 862.02
  Q 978.83 861.26 978.08 861.33
  Q 969.40 862.19 961.20 864.63
  Z"
/>
<path fill="#da5a1b" d="
  M 812.66 742.26
  Q 809.25 750.13 805.47 755.22
  Q 780.41 789.01 754.15 818.40
  Q 747.24 826.13 737.21 830.74
  Q 753.28 807.34 769.69 784.36
  C 780.64 769.02 789.72 752.30 798.68 735.89
  A 0.90 0.89 -61.4 0 1 799.89 735.53
  L 812.66 742.26
  Z"
/>
<path fill="#ffffff" d="
  M 220.50 748.15
  Q 257.78 781.59 304.38 796.43
  C 331.06 804.93 358.85 805.44 384.76 794.21
  C 354.77 827.33 315.00 846.62 271.64 855.43
  A 2.37 2.37 0.0 0 1 270.03 855.18
  Q 219.79 827.60 210.63 770.54
  A 0.44 0.44 0.0 0 1 211.34 770.12
  C 217.31 774.75 233.16 785.37 240.42 778.34
  A 1.51 1.49 50.5 0 0 240.60 776.39
  L 220.50 748.15
  Z"
/>
<path fill="#da5a1b" d="
  M 1030.07 755.71
  C 1075.77 758.12 1116.88 757.99 1160.34 758.70
  Q 1161.17 758.72 1160.55 759.27
  L 1142.70 775.18
  Q 1100.97 767.65 1059.69 762.16
  C 1054.68 761.49 1047.36 759.63 1040.93 759.40
  Q 1037.28 759.27 1035.23 758.49
  Q 1032.49 757.43 1030.07 755.71
  Z"
/>
<path fill="#da5a1b" d="
  M 984.83 800.04
  Q 1022.62 807.74 1058.30 820.93
  A 0.35 0.35 0.0 0 1 1058.31 821.59
  L 1038.43 829.56
  Q 1030.87 823.47 1022.61 819.11
  Q 1019.72 817.58 1011.20 814.45
  Q 997.03 809.24 984.83 800.04
  Z"
/>
<path fill="#010101" d="
  M 846.96 914.88
  C 827.52 891.05 797.68 875.04 768.95 865.16
  C 768.05 863.83 766.31 861.62 766.59 860.06
  C 766.89 858.37 768.47 858.09 770.00 858.47
  C 807.48 867.67 853.66 892.21 865.27 931.88
  A 0.58 0.58 0.0 0 1 864.30 932.45
  L 846.96 914.88
  Z"
/>
<path fill="#f16f31" d="
  M 961.20 864.63
  Q 969.40 862.19 978.08 861.33
  Q 978.83 861.26 978.81 862.02
  L 978.59 868.44
  A 0.67 0.66 6.0 0 1 977.80 869.07
  L 960.24 865.71
  A 0.33 0.33 0.0 0 1 960.13 865.10
  Q 960.57 864.82 961.20 864.63
  Z"
/>
<path fill="#ffffff" d="
  M 292.04 908.26
  C 254.42 904.51 218.97 887.94 185.87 870.11
  C 183.59 868.88 179.29 866.57 179.41 864.01
  Q 179.48 862.57 181.06 862.30
  Q 201.05 858.88 218.79 869.46
  C 240.73 882.55 268.25 895.05 292.23 907.62
  A 0.34 0.34 0.0 0 1 292.04 908.26
  Z"
/>
<path fill="#010101" d="
  M 849.61 929.85
  Q 857.62 939.83 861.58 949.99
  Q 863.11 953.92 861.92 959.20
  Q 861.78 959.80 861.36 959.35
  L 850.77 948.03
  L 831.53 925.30
  A 0.17 0.17 0.0 0 0 831.25 925.48
  Q 842.53 947.17 847.91 971.74
  Q 848.83 976.74 849.64 982.07
  Q 851.15 992.02 851.20 992.43
  Q 853.53 1010.41 848.93 1028.20
  A 0.39 0.39 0.0 0 1 848.56 1028.50
  Q 848.36 1028.50 848.19 1028.42
  Q 848.00 1028.32 847.97 1028.12
  L 841.61 992.08
  Q 836.96 955.92 819.56 923.51
  Q 802.74 892.17 769.98 880.03
  Q 769.45 879.84 769.32 879.29
  Q 768.87 877.54 771.03 876.69
  C 778.59 873.74 784.07 875.67 791.43 879.70
  Q 825.63 898.42 849.61 929.85
  Z"
/>
<ellipse fill="#010101" cx="0.00" cy="0.00" transform="translate(432.64,915.75) rotate(130.6)" rx="6.58" ry="1.91"/>
<path fill="#ffffff" d="
  M 850.77 948.03
  L 847.91 971.74
  Q 842.53 947.17 831.25 925.48
  A 0.17 0.17 0.0 0 1 831.53 925.30
  L 850.77 948.03
  Z"
/>
<ellipse fill="#010101" cx="0.00" cy="0.00" transform="translate(397.28,946.51) rotate(128.0)" rx="6.61" ry="2.96"/>
<ellipse fill="#010101" cx="0.00" cy="0.00" transform="translate(441.18,955.66) rotate(-40.1)" rx="9.43" ry="3.39"/>
<path fill="#da5a1b" d="
  M 812.10 1098.98
  Q 806.89 1091.17 799.21 1085.30
  Q 842.34 1072.62 873.94 1045.20
  Q 898.30 1024.06 922.60 1002.22
  A 0.54 0.53 -2.9 0 1 923.39 1002.93
  C 920.24 1007.23 917.50 1011.70 915.45 1016.72
  C 905.13 1041.97 902.46 1070.81 906.34 1097.50
  Q 909.53 1119.41 924.43 1136.15
  Q 924.79 1136.56 924.26 1136.71
  Q 908.74 1141.24 892.87 1144.14
  C 870.33 1148.26 849.92 1144.80 831.11 1131.33
  C 825.09 1127.01 816.04 1121.62 816.10 1113.11
  Q 816.12 1110.49 818.41 1105.15
  Q 824.07 1091.94 829.81 1078.79
  A 0.74 0.74 0.0 0 0 829.31 1077.77
  Q 828.28 1077.52 827.30 1078.56
  Q 818.50 1087.87 812.10 1098.98
  Z"
/>
<path fill="#d3d3d3" d="
  M 582.49 1022.23
  Q 556.61 1016.17 527.50 1017.85
  Q 509.56 1018.88 494.06 1023.05
  C 487.39 1024.84 479.43 1028.26 472.07 1031.00
  C 461.34 1035.00 451.07 1040.99 441.36 1047.16
  Q 438.60 1046.33 438.93 1043.20
  Q 438.98 1042.71 439.37 1042.42
  Q 450.62 1034.03 454.70 1031.90
  Q 469.71 1024.07 484.68 1016.17
  Q 496.33 1010.02 502.83 1007.89
  C 528.86 999.36 561.40 1003.19 582.49 1022.23
  Z"
/>
<path fill="#d3d3d3" d="
  M 312.13 1063.92
  L 292.52 1060.62
  L 286.40 1041.16
  A 2.15 2.14 -21.4 0 1 287.54 1038.58
  Q 289.18 1037.82 290.66 1039.07
  Q 303.45 1049.91 312.13 1063.92
  Z"
/>
<path fill="#010101" d="
  M 622.41 1072.84
  Q 624.97 1058.03 623.23 1043.13
  A 1.25 1.23 -25.4 0 1 623.61 1042.09
  Q 624.25 1041.48 624.90 1041.84
  Q 625.26 1042.04 625.59 1042.65
  Q 633.00 1056.58 632.60 1072.50
  Q 632.31 1084.40 621.24 1087.27
  C 613.45 1089.29 608.97 1081.71 604.42 1076.93
  C 597.63 1069.77 590.75 1064.91 581.52 1061.68
  A 2.07 2.06 20.4 0 1 580.28 1058.98
  C 581.36 1056.20 586.41 1057.24 588.40 1058.17
  C 597.77 1062.51 606.00 1071.33 613.31 1075.20
  C 616.97 1077.14 621.51 1078.05 622.41 1072.84
  Z"
/>
</svg>
